<?xml version="1.0" encoding="UTF-8" standalone="no"?>
<svg
   xmlns:dc="http://purl.org/dc/elements/1.1/"
   xmlns:cc="http://creativecommons.org/ns#"
   xmlns:rdf="http://www.w3.org/1999/02/22-rdf-syntax-ns#"
   xmlns:svg="http://www.w3.org/2000/svg"
   xmlns="http://www.w3.org/2000/svg"
   version="1.1"
   id="svg71"
   width="37.899796"
   height="58.159546"
   viewBox="0 0 37.899796 58.159546">
  <metadata
     id="metadata77">
    <rdf:RDF>
      <cc:Work
         rdf:about="">
        <dc:format>image/svg+xml</dc:format>
        <dc:type
           rdf:resource="http://purl.org/dc/dcmitype/StillImage" />
        <dc:title></dc:title>
      </cc:Work>
    </rdf:RDF>
  </metadata>
  <defs
     id="defs75" />
  <g
     id="g79"
     transform="translate(0.44759279,-17.376196)">
    <path
       style="fill:#000000;stroke-width:1"
       d="m 25.41333,63.602493 3.723614,4.093113 -3.798462,-19.593802 C 23.121264,36.664614 23.186923,35.197586 18.385845,29.032617 15.747254,25.644455 12.098479,22.688086 4.9330028,21.275247 c -0.095149,-0.01876 -5.02140434,0.614301 -5.35636007,-1.716993 -0.1887035,-1.313377 0.70139929,-2.329195 3.48605697,-2.164517 8.1962113,0.484704 14.8892343,5.564939 17.6329463,8.758203 4.611024,5.366533 5.743379,11.038183 7.263486,19.394466 l 4.340993,21.402917 2.238142,-4.457012 c 0.03216,-0.726796 2.164313,-0.346877 2.70286,1.005016 0.538547,1.351894 0.0083,1.916987 -1.155893,5.444619 -2.22065,6.72869 -3.5735,7.804734 -6.13114,5.477935 -2.081368,-1.893519 -6.985192,-8.202247 -7.131227,-9.174269 -0.05001,-0.33285 1.115703,-1.072255 2.590463,-1.643119 z"
       id="path83" />
  </g>
</svg>
