<?xml version="1.0" encoding="UTF-8" standalone="no"?>
<svg
   xmlns:dc="http://purl.org/dc/elements/1.1/"
   xmlns:cc="http://creativecommons.org/ns#"
   xmlns:rdf="http://www.w3.org/1999/02/22-rdf-syntax-ns#"
   xmlns:svg="http://www.w3.org/2000/svg"
   xmlns="http://www.w3.org/2000/svg"
   version="1.1"
   id="svg71"
   width="76.563644"
   height="45.158459"
   viewBox="0 0 76.563645 45.158459">
  <metadata
     id="metadata77">
    <rdf:RDF>
      <cc:Work
         rdf:about="">
        <dc:format>image/svg+xml</dc:format>
        <dc:type
           rdf:resource="http://purl.org/dc/dcmitype/StillImage" />
        <dc:title></dc:title>
      </cc:Work>
    </rdf:RDF>
  </metadata>
  <defs
     id="defs75" />
  <path
     id="path83"
     style="fill:#000000;stroke-width:1"
     d="m 63.52878,11.426588 c 0.83649,-0.994745 4.863635,-2.6389287 4.863635,-2.6389287 -8.302081,-0.00483 -16.647281,-0.1760509 -24.909058,0.7193368 -4.335099,0.5482279 -8.58426,2.2732029 -11.564864,5.5633119 -3.798753,3.701867 -6.978792,8.142506 -8.97276,13.063932 -0.547328,4.471488 5.255603,5.664004 8.656421,5.45965 4.53775,-0.719992 8.228706,-4.459861 9.964723,-8.567933 1.589809,-3.463144 -1.694921,-6.065541 -4.410281,-7.476489 C 33.841288,15.882954 30.085133,14.563834 26.33347,14.867697 21.203968,15.857009 18.203956,21.038091 15.465912,24.92912 11.708991,30.751813 8.9141236,36.20544 4.7351296,41.761631 3.1871828,44.023401 -1.7550759,47.548773 0.64784338,42.806425 3.6924312,37.558943 6.8517023,32.363782 9.9350449,27.130477 12.795998,22.664544 15.584448,17.926689 19.795069,14.591959 c 3.91449,-2.952573 9.247054,-3.448226 13.766206,-1.678148 4.290942,1.396003 8.874763,3.66821 11.017509,7.835263 1.391836,4.646031 -1.769657,9.190741 -4.912906,12.311286 -3.753148,3.808596 -9.789069,4.245345 -14.639949,2.599436 -3.305705,-1.097469 -6.086021,-4.510005 -5.116423,-8.117479 1.04016,-4.087897 3.910653,-7.375266 6.159781,-10.846383 C 29.087856,12.45314 33.472672,9.3410031 38.417321,7.7541007 44.468348,5.8005792 50.927598,6.2700789 57.188464,5.7756974 60.932648,5.6691765 64.679294,5.6725673 68.42277,5.5377778 66.57474,4.2192511 62.163245,0.96226788 66.546597,-7.7625302e-8 70.181796,0.87400192 73.225439,3.5559681 76.008583,5.9378243 c 2.130751,2.9752821 -2.423059,4.3923777 -4.384678,5.5858707 -2.275926,1.159642 -4.65445,2.128523 -7.117859,2.810691 -0.778118,-0.754951 -1.813755,-1.913053 -0.977266,-2.907798 z" />
</svg>
