<?xml version="1.0" encoding="UTF-8" standalone="no"?>
<svg
   xmlns:dc="http://purl.org/dc/elements/1.1/"
   xmlns:cc="http://creativecommons.org/ns#"
   xmlns:rdf="http://www.w3.org/1999/02/22-rdf-syntax-ns#"
   xmlns:svg="http://www.w3.org/2000/svg"
   xmlns="http://www.w3.org/2000/svg"
   xmlns:sodipodi="http://sodipodi.sourceforge.net/DTD/sodipodi-0.dtd"
   xmlns:inkscape="http://www.inkscape.org/namespaces/inkscape"
   sodipodi:docname="texture-dot-fade.svg"
   id="svg1995"
   version="1.1"
   viewBox="0 0 465.44155 115.6504"
   height="115.6504"
   width="465.44153"
   inkscape:version="1.0.2 (e86c870879, 2021-01-15, custom)">
  <sodipodi:namedview
     pagecolor="#ffffff"
     bordercolor="#666666"
     borderopacity="1"
     objecttolerance="10"
     gridtolerance="10"
     guidetolerance="10"
     inkscape:pageopacity="0"
     inkscape:pageshadow="2"
     inkscape:window-width="1364"
     inkscape:window-height="747"
     id="namedview82"
     showgrid="false"
     inkscape:snap-global="false"
     inkscape:zoom="1.6187249"
     inkscape:cx="235.22081"
     inkscape:cy="117.06971"
     inkscape:window-x="0"
     inkscape:window-y="0"
     inkscape:window-maximized="1"
     inkscape:current-layer="svg1995"
     fit-margin-top="0"
     fit-margin-left="0"
     fit-margin-right="0"
     fit-margin-bottom="0" />
  <metadata
     id="metadata2001">
    <rdf:RDF>
      <cc:Work
         rdf:about="">
        <dc:format>image/svg+xml</dc:format>
        <dc:type
           rdf:resource="http://purl.org/dc/dcmitype/StillImage" />
        <dc:title>footer Blob</dc:title>
      </cc:Work>
    </rdf:RDF>
  </metadata>
  <defs
     id="defs1999" />
  <!-- Generator: Sketch 58 (84663) - https://sketch.com -->
  <title
     id="title1543">footer Blob</title>
  <desc
     id="desc1545">Created with Sketch.</desc>
  <path
     d="m 36.798165,4.2404582 c 0.97216,4.49e-4 1.763404,-0.6571857 1.763778,-1.4691956 3.75e-4,-0.81061 -0.790262,-1.4675753 -1.762422,-1.4680242 -0.97369,-4.497e-4 -1.761863,0.6557865 -1.762238,1.4663964 -3.74e-4,0.81201 0.787192,1.4703737 1.760882,1.4708234"
     id="Fill-655"
     style="fill:#000000;fill-rule:evenodd;stroke:none;stroke-width:1" />
  <path
     d="m 35.816685,13.7225 c 1.946757,0.743995 4.183544,-0.10119 4.989123,-1.884088 0.804466,-1.780411 -0.123387,-3.8321183 -2.070147,-4.5761132 -1.951705,-0.7458862 -4.179921,0.099663 -4.984383,1.880076 -0.805585,1.7828952 0.113697,3.8342392 2.065407,4.5801252"
     id="Fill-659"
     style="fill:#000000;fill-rule:evenodd;stroke:none;stroke-width:1" />
  <path
     d="m 35.965231,26.940419 c 2.976682,0.187192 5.536236,-2.080484 5.723944,-5.065096 0.187695,-2.984603 -2.067569,-5.555105 -5.044268,-5.742312 -2.976681,-0.187193 -5.539403,2.080282 -5.727112,5.064883 -0.187694,2.984615 2.070738,5.555316 5.047425,5.742525"
     id="Fill-665"
     style="fill:#000000;fill-rule:evenodd;stroke:none;stroke-width:0.999997" />
  <path
     d="m 38.262777,41.377104 c 3.356327,-0.663025 5.594589,-3.653488 4.997687,-6.675115 -0.596314,-3.01859 -3.802994,-4.930269 -7.159322,-4.267238 -3.359409,0.663641 -5.595188,3.650462 -4.998875,6.669054 0.596913,3.021617 3.801099,4.936949 7.16051,4.273299"
     id="Fill-669"
     style="fill:#000000;fill-rule:evenodd;stroke:none;stroke-width:1" />
  <path
     d="m 36.120668,59.110362 c 4.408557,0.459692 8.320851,-2.388749 8.73477,-6.357656 0.413484,-3.964908 -2.827296,-7.555374 -7.235846,-8.01514 -4.412583,-0.460092 -8.320428,2.384763 -8.733925,6.349666 -0.413878,3.968912 2.822426,7.562947 7.235001,8.02313"
     id="Fill-669-3"
     style="fill:#000000;fill-rule:evenodd;stroke:none;stroke-width:1" />
  <path
     d="m 36.273612,77.170996 c 4.508315,0.04313 8.198981,-3.413302 8.240111,-7.714719 0.04109,-4.297085 -3.582849,-7.819107 -8.091164,-7.862215 -4.512435,-0.04317 -8.198934,3.408972 -8.240023,7.706053 -0.04112,4.301422 3.578643,7.827734 8.091076,7.870881"
     id="Fill-669-3-6"
     style="fill:#000000;fill-rule:evenodd;stroke:none;stroke-width:0.999999" />
  <path
     d="M 54.537351,5.4960245 C 56.191986,5.005819 57.11544,3.6189188 56.593747,2.3995892 56.072951,1.1823516 54.304922,0.59520857 52.650274,1.0854006 c -1.657256,0.4909659 -2.576364,1.874218 -2.05558,3.091454 0.521691,1.2193297 2.285401,1.8101361 3.942657,1.3191699"
     id="Fill-655-7"
     style="fill:#000000;fill-rule:evenodd;stroke:none;stroke-width:0.999999" />
  <path
     d="m 50.58874,13.438785 c 1.544728,1.220857 3.987676,1.408707 5.448557,0.419789 1.458839,-0.987557 1.389559,-2.782252 -0.15515,-4.0031147 C 54.333485,8.6314918 51.898486,8.4469399 50.439646,9.4344957 48.978763,10.423434 49.040093,12.214819 50.58874,13.438792"
     id="Fill-659-5"
     style="fill:#000000;fill-rule:evenodd;stroke:none;stroke-width:0.999995" />
  <path
     d="m 57.818807,21.923118 c 0.01483,-3.304031 -2.199016,-5.922416 -4.945201,-5.856051 -2.746177,0.06636 -4.984033,2.792328 -4.998854,6.09638 -0.01483,3.304039 2.198999,5.925927 4.945164,5.859557 2.746197,-0.06638 4.984074,-2.795839 4.998966,-6.099852"
     id="Fill-665-3"
     style="fill:#000000;fill-rule:evenodd;stroke:none;stroke-width:0.999999" />
  <path
     d="m 48.224613,35.348094 c 0.634394,3.002048 3.685616,5.684386 6.810741,5.988669 3.121959,0.304011 5.140784,-1.884731 4.50639,-4.886781 -0.634974,-3.004808 -3.682487,-5.684087 -6.804452,-5.988056 -3.125119,-0.30431 -5.14765,1.881362 -4.512676,4.88617"
     id="Fill-669-5"
     style="fill:#000000;fill-rule:evenodd;stroke:none;stroke-width:0.999991" />
  <path
     d="m 47.782326,57.232595 c 3.222838,2.60506 7.873403,2.199417 10.381903,-0.903964 2.50598,-3.100247 1.925093,-7.729385 -1.297737,-10.334446 -3.225786,-2.607448 -7.870876,-2.202536 -10.376852,0.897714 -2.508507,3.103376 -1.933097,7.733255 1.292686,10.340696"
     id="Fill-669-3-62"
     style="fill:#000000;fill-rule:evenodd;stroke:none;stroke-width:0.999996" />
  <path
     d="m 50.700506,76.434454 c 4.897396,1.519097 9.905338,-0.585362 11.180493,-4.69633 1.273866,-4.106814 -1.665326,-8.671801 -6.562724,-10.19089 -4.901881,-1.52048 -9.904057,0.581227 -11.17792,4.688043 -1.275154,4.110964 1.658271,8.678697 6.560151,10.199177"
     id="Fill-669-3-6-9"
     style="fill:#000000;fill-rule:evenodd;stroke:none;stroke-width:0.999999" />
  <rect
     style="opacity:1;fill:#000000;stroke:none;stroke-width:2;stroke-linejoin:round;paint-order:fill markers stroke"
     id="rect3455"
     width="465.44153"
     height="12.675821"
     x="0"
     y="102.97457"
     rx="2016.4475"
     ry="0" />
  <path
     d="m 36.447451,95.457913 c 5.26642,0 9.5387,-4.06256 9.5387,-9.06769 0,-5.00008 -4.27228,-9.0576 -9.5387,-9.0576 -5.27123,0 -9.5387,4.05752 -9.5387,9.0576 0,5.00513 4.26747,9.06769 9.5387,9.06769"
     id="Fill-669-3-6-1"
     style="fill:#000000;fill-rule:evenodd;stroke:none;stroke-width:0.999997" />
  <path
     d="m 52.326511,96.390614 c 5.810457,0.02924 10.546222,-4.352554 10.57348,-9.780073 0.02712,-5.422029 -4.664314,-9.845648 -10.47477,-9.874829 -5.815784,-0.02927 -10.546196,4.347096 -10.573425,9.769129 -0.02713,5.427515 4.658932,9.856566 10.474715,9.885773"
     id="Fill-669-3-6-9-2"
     style="fill:#000000;fill-rule:evenodd;stroke:none;stroke-width:1" />
  <path
     d="m 36.644941,113.68292 c 6.59893,0 11.95218,-4.82208 11.95218,-10.76293 0,-5.934877 -5.35325,-10.750977 -11.95218,-10.750977 -6.60495,0 -11.95216,4.8161 -11.95216,10.750977 0,5.94085 5.34721,10.76293 11.95216,10.76293"
     id="Fill-669-3-6-1-7"
     style="fill:#000000;fill-rule:evenodd;stroke:none;stroke-width:1" />
  <path
     d="m 52.538152,114.22942 c 6.82316,0 12.35833,-5.05748 12.35833,-11.28836 0,-6.224589 -5.53517,-11.275799 -12.35833,-11.275799 -6.82941,0 -12.35833,5.05121 -12.35833,11.275799 0,6.23088 5.52892,11.28836 12.35833,11.28836"
     id="Fill-669-3-6-9-2-0"
     style="fill:#000000;fill-rule:evenodd;stroke:none;stroke-width:1" />
  <path
     d="M 70.792457,4.9514963 C 72.342696,5.6333591 73.858576,5.2875618 74.17278,4.1762339 74.486441,3.0668127 73.479264,1.6134268 71.92902,0.93155006 70.376334,0.24859845 68.865906,0.59464449 68.552229,1.7040553 c -0.3142,1.1113291 0.687536,2.5644883 2.240228,3.247441"
     id="Fill-655-7-9"
     style="fill:#000000;fill-rule:evenodd;stroke:none;stroke-width:0.999999" />
  <path
     d="m 67.924972,11.413093 c 0.04635,1.602209 1.499055,2.908954 3.239347,2.915035 1.737866,0.0061 3.112834,-1.290816 3.066493,-2.893022 -0.04647,-1.6062881 -1.496572,-2.9068894 -3.234438,-2.9129542 -1.740298,-0.00608 -3.117859,1.2846507 -3.0714,2.8909362"
     id="Fill-659-5-3"
     style="fill:#000000;fill-rule:evenodd;stroke:none;stroke-width:0.999994" />
  <path
     d="m 69.076954,19.763356 c -1.051833,1.3851 -0.788017,3.544124 0.587018,4.825774 1.375008,1.281663 3.340208,1.200237 4.392048,-0.184873 1.051836,-1.385103 0.789138,-3.545597 -0.585892,-4.827238 -1.375016,-1.281669 -3.341338,-1.198766 -4.393174,0.186337"
     id="Fill-665-3-6"
     style="fill:#000000;fill-rule:evenodd;stroke:none;stroke-width:0.999999" />
  <path
     d="m 68.281476,31.00715 c -2.533786,1.165832 -3.28442,4.121175 -1.676815,6.597013 1.605986,2.473345 4.964727,3.53469 7.498515,2.368861 2.536111,-1.166898 3.28603,-4.118693 1.680044,-6.592037 -1.607611,-2.475844 -4.965636,-3.540737 -7.501745,-2.373837"
     id="Fill-669-5-0"
     style="fill:#000000;fill-rule:evenodd;stroke:none;stroke-width:0.999993" />
  <path
     d="m 64.840216,57.152833 c 2.80751,3.234001 7.46761,3.543415 10.402951,0.692426 2.932387,-2.848121 3.034452,-7.782869 0.226947,-11.016867 -2.810082,-3.236955 -7.464655,-3.546284 -10.397043,-0.698161 -2.935341,2.851002 -3.042933,7.785654 -0.232855,11.022607"
     id="Fill-669-3-62-6"
     style="fill:#000000;fill-rule:evenodd;stroke:none;stroke-width:0.999996" />
  <path
     d="m 69.793683,77.870338 c 4.920878,1.287127 9.790651,-1.304889 10.872115,-5.784713 1.080369,-4.475304 -2.03489,-9.151146 -6.955771,-10.438281 -4.925381,-1.288316 -9.789566,1.300385 -10.869935,5.775685 -1.08146,4.479827 2.028205,9.159 6.953591,10.447309"
     id="Fill-669-3-6-9-26"
     style="fill:#000000;fill-rule:evenodd;stroke:none;stroke-width:0.999999" />
  <path
     d="m 69.633783,96.415538 c 6.242675,0.96261 12.020448,-2.883698 12.899501,-8.584481 0.87816,-5.695023 -3.473482,-11.097404 -9.716147,-12.060013 -6.248392,-0.963493 -12.019559,2.877966 -12.897725,8.572986 -0.879051,5.700786 3.465979,11.108017 9.714371,12.071508"
     id="Fill-669-3-6-9-2-1"
     style="fill:#000000;fill-rule:evenodd;stroke:none;stroke-width:1" />
  <path
     d="m 71.165644,113.30813 c 6.82316,0 12.35833,-5.05748 12.35833,-11.28836 0,-6.224581 -5.53517,-11.275791 -12.35833,-11.275791 -6.82941,0 -12.35833,5.05121 -12.35833,11.275791 0,6.23088 5.52892,11.28836 12.35833,11.28836"
     id="Fill-669-3-6-9-2-0-8"
     style="fill:#000000;fill-rule:evenodd;stroke:none;stroke-width:1" />
  <path
     d="m 88.936375,4.6256278 c 0.770409,1.2850009 2.136396,1.7611028 3.048594,1.0584755 0.910632,-0.7014158 1.021454,-2.3150261 0.251058,-3.6000357 -0.771609,-1.28703711 -2.13359,-1.76027613 -3.044225,-1.0588698 -0.912199,0.7026255 -1.02708,2.3133744 -0.255426,3.6004298"
     id="Fill-655-7-9-7"
     style="fill:#000000;fill-rule:evenodd;stroke:none;stroke-width:0.999999" />
  <path
     d="m 91.429329,14.81858 c 1.658843,-0.626555 2.451636,-2.605123 1.769041,-4.412378 -0.681653,-1.8047347 -2.583561,-2.7626396 -4.242406,-2.1360982 -1.663071,0.6281473 -2.450457,2.6018002 -1.768802,4.4065382 0.682604,1.807262 2.579105,2.770074 4.242174,2.141942"
     id="Fill-659-5-3-9"
     style="fill:#000000;fill-rule:evenodd;stroke:none;stroke-width:0.999998" />
  <path
     d="m 85.896271,22.206629 c -0.02812,2.297483 1.70852,4.177119 3.879074,4.203694 2.170588,0.02655 3.95265,-1.810023 3.980767,-4.107514 0.02812,-2.297488 -1.708468,-4.179564 -3.879032,-4.20613 -2.1706,-0.02655 -3.952692,1.812464 -3.980807,4.109956"
     id="Fill-665-3-6-2"
     style="fill:#000000;fill-rule:evenodd;stroke:none;stroke-width:0.999997" />
  <path
     d="m 83.924715,33.853681 c -1.373251,2.591682 -0.171758,5.921069 2.681019,7.432668 2.849892,1.510069 6.276592,0.633024 7.649848,-1.958657 1.37451,-2.594057 0.174608,-5.919552 -2.675284,-7.429622 -2.852777,-1.511599 -6.281071,-0.638442 -7.655583,1.955611"
     id="Fill-669-5-0-0"
     style="fill:#000000;fill-rule:evenodd;stroke:none;stroke-width:1" />
  <path
     d="m 82.795476,50.459785 c -1.205004,3.96451 0.916095,8.122465 4.733666,9.282807 3.813723,1.159127 7.886049,-1.116299 9.091053,-5.080806 1.206108,-3.968138 -0.912253,-8.121298 -4.725969,-9.280472 -3.817549,-1.160391 -7.892639,1.110334 -9.09875,5.078471"
     id="Fill-669-3-62-6-2"
     style="fill:#000000;fill-rule:evenodd;stroke:none;stroke-width:0.999997" />
  <path
     d="m 83.161718,74.107939 c 2.595044,4.185971 7.802947,5.658237 11.62556,3.28846 3.818753,-2.36739 4.812461,-7.684286 2.217407,-11.870258 -2.597422,-4.189801 -7.799112,-5.660643 -11.61786,-3.29325 -3.822607,2.369782 -4.822527,7.685248 -2.225108,11.875048"
     id="Fill-669-3-6-9-26-3"
     style="fill:#000000;fill-rule:evenodd;stroke:none;stroke-width:0.999999" />
  <path
     d="m 88.121609,96.400382 c 6.155643,1.416196 12.199061,-1.997632 13.492311,-7.618945 1.29197,-5.615627 -2.653305,-11.321552 -8.808944,-12.737754 -6.161287,-1.417495 -12.19773,1.991986 -13.489686,7.607614 -1.293271,5.621311 2.645034,11.331589 8.806319,12.749085"
     id="Fill-669-3-6-9-2-1-7"
     style="fill:#000000;fill-rule:evenodd;stroke:none;stroke-width:1" />
  <path
     d="m 90.137408,114.34713 c 6.82316,0 12.358322,-5.05748 12.358322,-11.28836 0,-6.224583 -5.535162,-11.275793 -12.358322,-11.275793 -6.82941,0 -12.35833,5.05121 -12.35833,11.275793 0,6.23088 5.52892,11.28836 12.35833,11.28836"
     id="Fill-669-3-6-9-2-0-8-5"
     style="fill:#000000;fill-rule:evenodd;stroke:none;stroke-width:1" />
  <path
     d="m 111.2845,4.6231179 c 0.88474,-0.7656959 1.12927,-2.122966 0.54278,-3.0291311 -0.58556,-0.90461754 -1.77965,-1.01439984 -2.66444,-0.2487135 -0.88614,0.766896 -1.12889,2.1201838 -0.54312,3.0248412 0.58658,0.9061743 1.77889,1.0199433 2.66508,0.2530511"
     id="Fill-655-7-9-9"
     style="fill:#000000;fill-rule:evenodd;stroke:none;stroke-width:0.999997" />
  <path
     d="m 107.49534,13.047499 c 0.83186,1.379742 2.71204,1.958201 4.19315,1.290907 1.47899,-0.666423 2.00543,-2.329097 1.17352,-3.708864 -0.83397,-1.3832581 -2.70891,-1.9573562 -4.18797,-1.2909969 -1.48101,0.6673719 -2.01268,2.3256959 -1.17877,3.7089259"
     id="Fill-659-5-3-2"
     style="fill:#000000;fill-rule:evenodd;stroke:none;stroke-width:1" />
  <path
     d="m 106.84804,24.250112 c 1.70216,1.513187 4.32704,1.687227 5.86713,0.392276 1.54007,-1.295024 1.41167,-3.568456 -0.29051,-5.081599 -1.70218,-1.513198 -4.32885,-1.688846 -5.86893,-0.393888 -1.54002,1.295104 -1.4099,3.570044 0.29231,5.083215"
     id="Fill-665-3-6-28"
     style="fill:#000000;fill-rule:evenodd;stroke:none;stroke-width:0.999994" />
  <path
     d="m 104.88282,38.282206 c 0.57413,2.866383 3.29036,4.740974 6.06309,4.185666 2.7699,-0.554901 4.55203,-3.3303 3.978,-6.196535 -0.57456,-2.869073 -3.28756,-4.741516 -6.0575,-4.186756 -2.77266,0.555635 -4.55811,3.328786 -3.98359,6.197631"
     id="Fill-669-5-0-9"
     style="fill:#000000;fill-rule:evenodd;stroke:none;stroke-width:1" />
  <path
     d="m 105.32268,47.231114 c -1.94338,3.173162 -1.16383,7.73147 1.73875,10.175586 2.89972,2.441873 6.82919,1.849006 8.77247,-1.324339 1.94511,-3.176076 1.1667,-7.728959 -1.73288,-10.170623 -2.90261,-2.444315 -6.83326,-1.85682 -8.77834,1.319376"
     id="Fill-669-3-62-6-7"
     style="fill:#000000;fill-rule:evenodd;stroke:none;stroke-width:0.999993" />
  <path
     d="m 104.40318,76.273065 c 3.95501,2.919247 9.47736,2.15248 12.32806,-1.709733 2.84805,-3.858151 1.95036,-9.357474 -2.00471,-12.276707 -3.95866,-2.921929 -9.47449,-2.156371 -12.3223,1.701949 -2.850729,3.862211 -1.95974,9.362589 1.99895,12.284491"
     id="Fill-669-3-6-9-26-36"
     style="fill:#000000;fill-rule:evenodd;stroke:none;stroke-width:1.00001" />
  <path
     d="m 109.07323,97.328028 c 6.29621,0.480475 11.75999,-3.796885 12.19865,-9.546565 0.43873,-5.743825 -4.31387,-10.794649 -10.61007,-11.274994 -6.302,-0.480915 -11.759597,3.791097 -12.197805,9.534968 -0.43871,5.749673 4.307255,10.805808 10.609225,11.286591"
     id="Fill-669-3-6-9-2-1-1"
     style="fill:#000000;fill-rule:evenodd;stroke:none;stroke-width:1" />
  <path
     d="m 109.91719,114.85936 c 6.82316,0 12.35833,-5.05748 12.35833,-11.28836 0,-6.224604 -5.53517,-11.275814 -12.35833,-11.275814 -6.82941,0 -12.358331,5.05121 -12.358331,11.275814 0,6.23088 5.528921,11.28836 12.358331,11.28836"
     id="Fill-669-3-6-9-2-0-8-2"
     style="fill:#000000;fill-rule:evenodd;stroke:none;stroke-width:1" />
  <path
     d="M 19.577066,5.309132 C 21.093152,4.6479117 21.800471,3.2371216 21.151163,2.1600122 20.502972,1.0847507 18.744469,0.7517438 17.228372,1.4129532 15.709882,2.0752061 15.006251,3.4820506 15.65443,4.557312 c 0.649308,1.0771094 2.404146,1.4140729 3.922636,0.75182"
     id="Fill-655-7-9-93"
     style="fill:#000000;fill-rule:evenodd;stroke:none;stroke-width:0.999999" />
  <path
     d="m 16.809838,15.076676 c 1.79695,0.84505 4.119871,0.15069 5.181105,-1.54769 1.059747,-1.69602 0.461133,-3.7612406 -1.335805,-4.6063006 -1.801525,-0.8472 -4.116089,-0.15197 -5.175837,1.5440496 -1.061234,1.698391 -0.470977,3.762731 1.330537,4.609941"
     id="Fill-659-5-3-1"
     style="fill:#000000;fill-rule:evenodd;stroke:none;stroke-width:0.999998" />
  <path
     d="m 18.40235,25.701381 c 3.500208,0 6.331049,-1.759458 6.331049,-3.930217 0,-2.170749 -2.830829,-3.930207 -6.331049,-3.930207 -3.500222,0 -6.334769,1.759458 -6.334769,3.930207 0,2.170759 2.834547,3.930217 6.334769,3.930217"
     id="Fill-665-3-6-9"
     style="fill:#000000;fill-rule:evenodd;stroke:none;stroke-width:1" />
  <path
     d="m 19.044672,42.432756 c 2.933124,0 5.312573,-2.620588 5.312573,-5.849204 0,-3.225353 -2.379448,-5.84271 -5.312573,-5.84271 -2.935815,0 -5.312573,2.617357 -5.312573,5.84271 0,3.228616 2.376758,5.849204 5.312573,5.849204"
     id="Fill-669-5-0-4"
     style="fill:#000000;fill-rule:evenodd;stroke:none;stroke-width:0.999995" />
  <path
     d="m 14.985211,58.62371 c 4.035667,1.901798 8.847591,0.560764 10.742508,-2.992145 1.893005,-3.549327 0.155309,-7.972378 -3.880359,-9.874175 -4.039363,-1.903537 -8.845688,-0.564338 -10.738692,2.984988 -1.8949141,3.552911 -0.162818,7.977793 3.876543,9.881333"
     id="Fill-669-3-62-6-78"
     style="fill:#000000;fill-rule:evenodd;stroke:none;stroke-width:0.999996" />
  <path
     d="m 18.196003,77.658909 c 4.925169,0 8.920623,-3.858135 8.920623,-8.611407 0,-4.748471 -3.995454,-8.601824 -8.920623,-8.601824 -4.929677,0 -8.9206222,3.853353 -8.9206222,8.601824 0,4.753272 3.9909452,8.611407 8.9206222,8.611407"
     id="Fill-669-3-6-9-26-4"
     style="fill:#000000;fill-rule:evenodd;stroke:none;stroke-width:0.999999" />
  <path
     d="m 18.64435,96.973203 c 6.466215,0 11.71183,-4.541074 11.71183,-10.135735 0,-5.589006 -5.245615,-10.124455 -11.71183,-10.124455 -6.472142,0 -11.7118292,4.535449 -11.7118292,10.124455 0,5.594661 5.2396872,10.135735 11.7118292,10.135735"
     id="Fill-669-3-6-9-2-1-5"
     style="fill:#000000;fill-rule:evenodd;stroke:none;stroke-width:1" />
  <path
     d="m 18.232066,114.353 c 6.929361,0 12.550685,-5.1362 12.550685,-11.46406 0,-6.321469 -5.621324,-11.451301 -12.550685,-11.451301 -6.935708,0 -12.5506849,5.129832 -12.5506849,11.451301 0,6.32786 5.6149769,11.46406 12.5506849,11.46406"
     id="Fill-669-3-6-9-2-0-8-0"
     style="fill:#000000;fill-rule:evenodd;stroke:none;stroke-width:1" />
  <g
     id="g3923"
     transform="translate(-338.69254,-106.18314)">
    <path
       id="Fill-655-7-9-3"
       style="fill:#000000;fill-rule:evenodd;stroke:none;stroke-width:0.999999"
       d="m 338.69336,110.91211 c 0.35957,-0.0393 0.70861,0.0255 1.06055,-0.13086 1.3692,-0.60831 2.00827,-1.90556 1.42187,-2.89648 -0.43504,-0.73515 -1.4412,-0.93262 -2.48242,-0.81836 z" />
    <path
       id="Fill-659-5-3-6"
       style="fill:#000000;fill-rule:evenodd;stroke:none;stroke-width:0.999998"
       d="m 338.69336,120.68555 c 1.12053,-0.0875 2.21586,-0.71398 2.82617,-1.83985 0.91937,-1.69602 0.40071,-3.76236 -1.1582,-4.60742 -0.52648,-0.28539 -1.09911,-0.33693 -1.66797,-0.29297 z" />
    <path
       id="Fill-665-3-6-1"
       style="fill:#000000;fill-rule:evenodd;stroke:none;stroke-width:1"
       d="m 338.69336,131.26758 c 6.8e-4,0 0.001,0 0.002,0 2.87963,0 5.20899,-1.44849 5.20899,-3.23438 0,-1.78588 -2.32935,-3.23242 -5.20899,-3.23242 -6.8e-4,0 -10e-4,0 -0.002,0 z" />
    <path
       id="Fill-669-5-0-06"
       style="fill:#000000;fill-rule:evenodd;stroke:none;stroke-width:0.999995"
       d="m 338.69336,147.93164 c 2.66043,0 4.81836,-2.37624 4.81836,-5.30469 0,-2.92549 -2.15793,-5.29883 -4.81836,-5.29883 z" />
    <path
       id="Fill-669-3-62-6-3"
       style="fill:#000000;fill-rule:evenodd;stroke:none;stroke-width:0.999996"
       d="m 338.69336,164.81055 c 3.75876,0 6.80859,-2.9372 6.80859,-6.55664 0,-3.61579 -3.04983,-6.55079 -6.80859,-6.55079 z" />
    <path
       id="Fill-669-3-6-9-26-2"
       style="fill:#000000;fill-rule:evenodd;stroke:none;stroke-width:1"
       d="m 338.69336,185.22852 c 5.79091,0 10.48828,-4.29381 10.48828,-9.58204 0,-5.28289 -4.69737,-9.56836 -10.48828,-9.56836 z" />
    <path
       id="Fill-669-3-6-9-2-1-0"
       style="fill:#000000;fill-rule:evenodd;stroke:none;stroke-width:1"
       d="m 338.69336,203.02734 c 6.31645,0 11.44141,-4.68106 11.44141,-10.44922 0,-5.76232 -5.12496,-10.43945 -11.44141,-10.43945 z" />
    <path
       id="Fill-669-3-6-9-2-0-8-6"
       style="fill:#000000;fill-rule:evenodd;stroke:none;stroke-width:1"
       d="m 338.69336,220.4082 c 6.82316,0 12.35937,-5.05818 12.35937,-11.28906 0,-6.22458 -5.53621,-11.27539 -12.35937,-11.27539 z" />
  </g>
  <g
     id="g3913"
     transform="translate(126.74818,-106.19821)">
    <path
       id="path3902"
       style="fill:#000000;fill-rule:evenodd;stroke:none;stroke-width:0.999999"
       d="m 338.69336,110.91211 v -3.8457 c -0.35986,0.0395 -0.70888,-0.0254 -1.06055,0.13086 -1.37137,0.60926 -2.00725,1.90335 -1.42187,2.89257 0.43591,0.73662 1.44088,0.9361 2.48242,0.82227 z" />
    <path
       id="path3899"
       style="fill:#000000;fill-rule:evenodd;stroke:none;stroke-width:0.999998"
       d="m 338.69336,120.68555 v -6.74024 c -1.11985,0.0865 -2.2126,0.7132 -2.82227,1.83789 -0.92066,1.69839 -0.40858,3.76217 1.1543,4.60938 0.5255,0.28486 1.09818,0.33745 1.66797,0.29297 z" />
    <path
       id="path3896"
       style="fill:#000000;fill-rule:evenodd;stroke:none;stroke-width:1"
       d="m 338.69336,131.26758 v -6.4668 c -2.8787,6.9e-4 -5.20898,1.44697 -5.20898,3.23242 0,1.78547 2.33028,3.23369 5.20898,3.23438 z" />
    <path
       id="path3893"
       style="fill:#000000;fill-rule:evenodd;stroke:none;stroke-width:0.999995"
       d="m 338.69336,147.93164 v -10.60352 c -2.66287,0 -4.81836,2.37334 -4.81836,5.29883 0,2.92845 2.15549,5.30469 4.81836,5.30469 z" />
    <path
       id="path3890"
       style="fill:#000000;fill-rule:evenodd;stroke:none;stroke-width:0.999996"
       d="m 338.69336,164.81055 v -13.10743 c -3.7622,0 -6.80859,2.935 -6.80859,6.55079 0,3.61944 3.04639,6.55664 6.80859,6.55664 z" />
    <path
       id="path3887"
       style="fill:#000000;fill-rule:evenodd;stroke:none;stroke-width:1"
       d="m 338.69336,185.22852 v -19.1504 c -5.79621,0 -10.48828,4.28547 -10.48828,9.56836 0,5.28823 4.69207,9.58204 10.48828,9.58204 z" />
    <path
       id="path3884"
       style="fill:#000000;fill-rule:evenodd;stroke:none;stroke-width:1"
       d="m 338.69336,203.02734 v -20.88867 c -6.32224,0 -11.43945,4.67712 -11.43945,10.43945 0,5.76816 5.11721,10.44922 11.43945,10.44922 z" />
    <path
       id="path3881"
       style="fill:#000000;fill-rule:evenodd;stroke:none;stroke-width:1"
       d="m 338.69336,220.4082 v -22.56445 c -6.82941,0 -12.35742,5.05081 -12.35742,11.27539 0,6.23088 5.52801,11.28906 12.35742,11.28906 z" />
  </g>
  <path
     d="m 146.89462,5.5053503 c 2.17328,0.3903813 4.36829,-0.2023174 4.89496,-1.3257105 0.51457,-1.1234673 -0.81612,-2.3473856 -2.98914,-2.737728 -2.17658,-0.3909811 -4.36374,0.2010171 -4.88968,1.3224494 -0.51557,1.1254 0.80747,2.350034 2.98386,2.7409891"
     id="Fill-655-3"
     style="fill:#000000;fill-rule:evenodd;stroke:none;stroke-width:0.999961" />
  <path
     d="m 145.30674,13.135795 c 1.16535,1.686768 3.45032,2.245674 5.0959,1.247466 1.64331,-0.996792 2.03219,-3.177574 0.86675,-4.8644037 -1.16837,-1.6910849 -3.44657,-2.2449272 -5.08986,-1.2480961 -1.64561,0.9981938 -2.04127,3.1738598 -0.87275,4.8650428"
     id="Fill-659-6"
     style="fill:#000000;fill-rule:evenodd;stroke:none;stroke-width:0.999965" />
  <path
     d="m 142.29647,24.72335 c 1.32756,2.58085 4.49856,3.58931 7.08634,2.258234 2.58759,-1.331345 3.61115,-4.497518 2.284,-7.078098 -1.32761,-2.580892 -4.49998,-3.592092 -7.08776,-2.26104 -2.58754,1.331472 -3.61009,4.500045 -2.28259,7.080889"
     id="Fill-665-7"
     style="fill:#000000;fill-rule:evenodd;stroke:none;stroke-width:1" />
  <path
     d="m 142.75586,37.905267 c 0.76413,3.198525 3.72134,5.234905 6.6009,4.546947 2.87666,-0.687283 4.59117,-3.839757 3.82691,-7.038275 -0.76483,-3.201471 -3.71845,-5.235601 -6.59511,-4.548374 -2.87954,0.687981 -4.59764,3.838228 -3.83272,7.039681"
     id="Fill-669-53"
     style="fill:#000000;fill-rule:evenodd;stroke:none;stroke-width:0.999994" />
  <path
     d="m 140.79681,51.07767 c -0.31733,4.250024 2.5309,7.929741 6.35713,8.215408 3.8224,0.28542 7.18161,-2.930805 7.49902,-7.180871 0.31761,-4.253879 -2.52707,-7.929349 -6.34947,-8.214747 -3.82622,-0.285832 -7.18901,2.926404 -7.50669,7.180254"
     id="Fill-669-3-5"
     style="fill:#000000;fill-rule:evenodd;stroke:none;stroke-width:0.999987" />
  <path
     d="m 141.11647,73.556843 c 2.6345,3.530372 7.50569,4.354024 10.874,1.840465 3.36496,-2.511076 3.95843,-7.412675 1.32391,-10.94304 -2.63687,-3.533533 -7.50227,-4.356564 -10.86721,-1.845505 -3.36835,2.513573 -3.96756,7.41454 -1.3307,10.94808"
     id="Fill-669-3-6-6"
     style="fill:#000000;fill-rule:evenodd;stroke:none;stroke-width:0.999999" />
  <path
     d="m 164.58531,6.1869921 c 1.69046,0.2257112 3.08328,-0.6525888 3.10487,-1.9630691 0.0213,-1.3082439 -1.33625,-2.5515187 -3.02669,-2.7772164 -1.69315,-0.226104 -3.08054,0.6506703 -3.10215,1.9588843 -0.0213,1.3104853 1.33088,2.5553429 3.02397,2.7814012"
     id="Fill-655-7-2"
     style="fill:#000000;fill-rule:evenodd;stroke:none;stroke-width:0.999978" />
  <path
     d="m 161.1198,11.625814 c 0.27075,1.906689 1.87455,3.687475 3.57645,3.972232 1.6995,0.284444 2.86086,-1.033635 2.59008,-2.940319 -0.2714,-1.911441 -1.87188,-3.68459 -3.57137,-3.9690023 -1.70185,-0.2847921 -2.86665,1.0255387 -2.59512,2.9371333"
     id="Fill-659-5-9"
     style="fill:#000000;fill-rule:evenodd;stroke:none;stroke-width:0.999965" />
  <path
     d="m 163.13081,26.238317 c 3.00272,0.709829 5.73703,-0.250934 6.11432,-2.144816 0.37745,-1.893853 -1.74554,-4.002899 -4.74798,-4.712945 -3.0027,-0.70982 -5.74014,0.250193 -6.11753,2.144103 -0.37748,1.8939 1.74853,4.003763 4.75117,4.713671"
     id="Fill-665-3-1"
     style="fill:#000000;fill-rule:evenodd;stroke:none;stroke-width:1" />
  <path
     d="m 165.81662,32.848118 c -3.00947,-0.817523 -6.41453,0.623399 -7.60191,3.215019 -1.18616,2.589348 0.29267,5.353792 3.30214,6.171317 3.01214,0.818299 6.41324,-0.620936 7.59954,-3.209812 1.18738,-2.591904 -0.28753,-5.358215 -3.29978,-6.176503"
     id="Fill-669-5-2"
     style="fill:#000000;fill-rule:evenodd;stroke:none;stroke-width:0.999997" />
  <path
     d="m 159.06278,45.835916 c -3.0607,2.469639 -3.61278,6.86547 -1.23516,9.812455 2.3759,2.944057 6.78644,3.329939 9.84707,0.860299 3.06342,-2.471919 3.61595,-6.862067 1.23987,-9.806477 -2.37815,-2.947117 -6.78839,-3.338166 -9.85178,-0.866277"
     id="Fill-669-3-62-7"
     style="fill:#000000;fill-rule:evenodd;stroke:none;stroke-width:0.999992" />
  <path
     d="m 156.50847,70.694504 c 0.56508,4.941646 4.39046,8.565469 8.5386,8.09114 4.14391,-0.473865 7.04831,-4.867285 6.48322,-9.808932 -0.5656,-4.946124 -4.38627,-8.565961 -8.53023,-8.09211 -4.14812,0.474501 -7.05721,4.863695 -6.49159,9.809902"
     id="Fill-669-3-6-9-0"
     style="fill:#000000;fill-rule:evenodd;stroke:none;stroke-width:0.999981" />
  <path
     d="m 145.86855,95.340223 c 5.14486,0.95914 10.05844,-2.231691 10.96994,-7.121328 0.91081,-4.884655 -2.52421,-9.626622 -7.66913,-10.585708 -5.1496,-0.95991 -10.0575,2.226768 -10.9681,7.111463 -0.91171,4.889595 2.51769,9.635611 7.66729,10.595573"
     id="Fill-669-3-6-1-9"
     style="fill:#000000;fill-rule:evenodd;stroke:none;stroke-width:0.999999" />
  <path
     d="m 159.92972,95.672685 c 5.32569,2.201448 11.31524,-0.05056 13.37158,-5.025322 2.05419,-4.969769 -0.59901,-10.788491 -5.92482,-12.989982 -5.33059,-2.203454 -11.31311,0.04558 -13.36746,5.015285 -2.05631,4.974765 0.59003,10.796518 5.9207,13.000019"
     id="Fill-669-3-6-9-2-3"
     style="fill:#000000;fill-rule:evenodd;stroke:none;stroke-width:0.999975" />
  <path
     d="m 147.7529,114.23926 c 6.59834,-0.009 11.94578,-4.83476 11.93919,-10.77508 -0.008,-5.934411 -5.36455,-10.744124 -11.96291,-10.736815 -6.60436,0.007 -11.94577,4.828901 -11.93919,10.763155 0.008,5.94034 5.35853,10.75609 11.96291,10.74874"
     id="Fill-669-3-6-1-7-6"
     style="fill:#000000;fill-rule:evenodd;stroke:none;stroke-width:1" />
  <path
     d="m 163.62094,114.81341 c 6.8225,0.0105 12.36642,-5.03432 12.37784,-11.26458 0.009,-6.223996 -5.5139,-11.284867 -12.33638,-11.297401 -6.82875,-0.01236 -12.36639,5.028025 -12.37784,11.251981 -0.009,6.23028 5.50765,11.29748 12.33638,11.31"
     id="Fill-669-3-6-9-2-0-0"
     style="fill:#000000;fill-rule:evenodd;stroke:none;stroke-width:0.999996" />
  <path
     d="m 181.58047,5.480517 c 1.46989,0.8074495 2.99516,0.5981884 3.40169,-0.470707 0.40566,-1.0671138 -0.46103,-2.5881893 -1.93093,-3.3956673 -1.47221,-0.80873342 -2.9922,-0.5987881 -3.39801,0.4682817 -0.40639,1.0689484 0.455,2.589325 1.92725,3.3980926"
     id="Fill-655-7-9-6"
     style="fill:#000000;fill-rule:evenodd;stroke:none;stroke-width:0.999996" />
  <path
     d="m 179.59086,11.36047 c -0.36335,1.527131 0.67791,3.132482 2.32231,3.580803 1.64212,0.447815 3.2724,-0.429025 3.63588,-1.956554 0.36425,-1.531024 -0.67611,-3.129964 -2.3182,-3.577635 -1.64446,-0.4484868 -3.2756,0.4219411 -3.64002,1.953334"
     id="Fill-659-5-3-26"
     style="fill:#000000;fill-rule:evenodd;stroke:none;stroke-width:0.999992" />
  <path
     d="m 181.62587,19.73607 c -1.53223,0.679667 -2.31408,2.624775 -1.7497,4.346149 0.56426,1.721633 2.26088,2.567114 3.79301,1.887457 1.53222,-0.679788 2.31558,-2.625584 1.75127,-4.346935 -0.56423,-1.721609 -2.26245,-2.566367 -3.79459,-1.886674"
     id="Fill-665-3-6-18"
     style="fill:#000000;fill-rule:evenodd;stroke:none;stroke-width:0.999998" />
  <path
     d="m 183.54085,32.002962 c -2.43047,-1.038443 -4.9839,0.313861 -5.70062,3.017738 -0.71605,2.701161 0.6745,5.735593 3.10459,6.774158 2.43274,1.039281 4.98312,-0.311158 5.69911,-3.01233 0.71687,-2.703893 -0.67082,-5.740053 -3.10324,-6.779491"
     id="Fill-669-5-0-7"
     style="fill:#000000;fill-rule:evenodd;stroke:none;stroke-width:0.999987" />
  <path
     d="m 176.07685,51.02684 c -0.93537,3.946374 1.40214,7.701032 5.21697,8.382645 3.81085,0.681017 7.66211,-1.967755 8.59758,-5.914121 0.93618,-3.949961 -1.39839,-7.700353 -5.20925,-8.381367 -3.81471,-0.681661 -7.66895,1.96282 -8.60519,5.912786"
     id="Fill-669-3-62-6-9"
     style="fill:#000000;fill-rule:evenodd;stroke:none;stroke-width:0.999997" />
  <path
     d="m 176.70379,75.415545 c 3.24508,3.710421 8.56055,4.282617 11.866,1.279237 3.30231,-3.000095 3.34923,-8.445081 0.10416,-12.155525 -3.24805,-3.713841 -8.55721,-4.285652 -11.85932,-1.285295 -3.30564,3.00314 -3.35887,8.447726 -0.11075,12.161583"
     id="Fill-669-3-6-9-26-20"
     style="fill:#000000;fill-rule:evenodd;stroke:none;stroke-width:0.99999" />
  <path
     d="m 178.31582,96.175511 c 5.81074,2.339916 12.25907,-0.06924 14.3957,-5.375691 2.13598,-5.30045 -0.84721,-11.500903 -6.65805,-13.840658 -5.81609,-2.342045 -12.25695,0.06391 -14.39149,5.364953 -2.13809,5.305852 0.83762,11.509475 6.65384,13.851396"
     id="Fill-669-3-6-9-2-1-2"
     style="fill:#000000;fill-rule:evenodd;stroke:none;stroke-width:0.999968" />
  <path
     d="m 182.27204,113.87453 c 6.82237,0.0261 12.37712,-5.00734 12.40206,-11.23752 0.0246,-6.223877 -5.48936,-11.296661 -12.31174,-11.323989 -6.82859,-0.0273 -12.37712,5.001125 -12.40199,11.224989 -0.0246,6.23015 5.48305,11.30917 12.31167,11.33652"
     id="Fill-669-3-6-9-2-0-8-3"
     style="fill:#000000;fill-rule:evenodd;stroke:none;stroke-width:0.999998" />
  <path
     d="m 200.35716,5.5607541 c 1.03062,1.074325 2.45921,1.2332734 3.18743,0.3507808 0.72696,-0.8809861 0.47719,-2.468667 -0.5535,-3.5430424 -1.03223,-1.0760364 -2.45632,-1.2330948 -3.18327,-0.3521191 -0.72822,0.8824942 -0.483,2.4683159 0.54934,3.5443823"
     id="Fill-655-7-9-7-7"
     style="fill:#000000;fill-rule:evenodd;stroke:none;stroke-width:0.999997" />
  <path
     d="m 203.49691,14.855438 c 1.401,-1.040636 1.61734,-3.127335 0.48386,-4.653589 -1.13214,-1.5242571 -3.19075,-1.9177523 -4.59177,-0.8771389 -1.40453,1.0433069 -1.61765,3.1235839 -0.48525,4.6479669 1.13375,1.5264 3.18855,1.925997 4.59316,0.882764"
     id="Fill-659-5-3-9-5"
     style="fill:#000000;fill-rule:evenodd;stroke:none;stroke-width:0.999987" />
  <path
     d="m 197.05715,23.860458 c 0.49878,2.165276 2.56046,3.534679 4.60626,3.06331 2.04587,-0.470954 3.30062,-2.60451 2.80166,-4.769996 -0.49879,-2.165354 -2.56098,-3.537046 -4.60676,-3.065706 -2.04593,0.470965 -3.3001,2.606848 -2.8011,4.772434"
     id="Fill-665-3-6-2-9"
     style="fill:#000000;fill-rule:evenodd;stroke:none;stroke-width:0.999969" />
  <path
     d="m 195.66695,35.95052 c -0.85976,2.644087 0.80558,5.55709 3.7161,6.503161 2.90822,0.943053 5.96427,-0.43288 6.8238,-3.077019 0.86057,-2.646428 -0.80261,-5.556079 -3.71023,-6.501283 -2.91114,-0.943953 -5.96936,0.428583 -6.82968,3.075151"
     id="Fill-669-5-0-0-2"
     style="fill:#000000;fill-rule:evenodd;stroke:none;stroke-width:0.999994" />
  <path
     d="m 194.17755,52.379857 c -0.54137,3.883678 2.05484,7.457304 5.79443,7.978687 3.73633,0.51749 7.20674,-2.207067 7.74811,-6.090642 0.54179,-3.887233 -2.05105,-7.45677 -5.78695,-7.977589 -3.7401,-0.518078 -7.21378,2.202466 -7.75565,6.089572"
     id="Fill-669-3-62-6-2-2"
     style="fill:#000000;fill-rule:evenodd;stroke:none;stroke-width:0.999987" />
  <path
     d="m 195.31018,74.389417 c 3.03635,3.664746 8.21617,4.38703 11.56277,1.614099 3.3429,-2.77043 3.59295,-7.990903 0.5565,-11.655625 -3.03917,-3.668109 -8.21281,-4.389826 -11.55602,-1.619688 -3.34632,2.773238 -3.60251,7.993128 -0.56325,11.661215"
     id="Fill-669-3-6-9-26-3-8"
     style="fill:#000000;fill-rule:evenodd;stroke:none;stroke-width:0.999999" />
  <path
     d="m 199.91625,97.055165 c 6.20176,0.882562 11.88695,-2.998324 12.6929,-8.661733 0.80516,-5.657684 -3.57244,-10.964834 -9.77429,-11.847434 -6.20743,-0.883421 -11.88614,2.992623 -12.69131,8.650306 -0.80592,5.663421 3.56515,10.975451 9.7727,11.858861"
     id="Fill-669-3-6-9-2-1-7-9"
     style="fill:#000000;fill-rule:evenodd;stroke:none;stroke-width:0.999996" />
  <path
     d="m 201.33192,114.93366 c 6.82247,0 12.35707,-5.05697 12.35707,-11.28723 0,-6.223936 -5.5346,-11.274635 -12.35707,-11.274635 -6.82873,0 -12.35708,5.050699 -12.35708,11.274635 0,6.23026 5.52835,11.28723 12.35708,11.28723"
     id="Fill-669-3-6-9-2-0-8-5-7"
     style="fill:#000000;fill-rule:evenodd;stroke:none;stroke-width:0.999993" />
  <path
     d="m 222.05167,5.352814 c 0.99224,-0.6060522 1.45358,-1.8965033 1.02664,-2.8804977 -0.42618,-0.9822945 -1.57874,-1.2849204 -2.57106,-0.6789044 -0.99384,0.6069909 -1.45274,1.8938352 -1.02654,2.8761392 0.42689,0.9839727 1.57707,1.2902207 2.57091,0.6832421"
     id="Fill-655-7-9-9-3"
     style="fill:#000000;fill-rule:evenodd;stroke:none;stroke-width:0.999971" />
  <path
     d="m 218.45185,13.130951 c 0.56169,1.480148 2.27785,2.369874 3.82717,1.98505 1.54713,-0.38432 2.34824,-1.899411 1.78656,-3.379565 -0.56316,-1.483921 -2.27501,-2.3685383 -3.82216,-1.9842343 -1.54926,0.3848873 -2.35472,1.8948053 -1.79154,3.3787663"
     id="Fill-659-5-3-2-6"
     style="fill:#000000;fill-rule:evenodd;stroke:none;stroke-width:0.999991" />
  <path
     d="m 217.4886,24.376048 c 1.30826,1.76889 3.75511,2.455482 5.46859,1.537513 1.71333,-0.918206 2.04412,-3.092795 0.73587,-4.861721 -1.30833,-1.768972 -3.75653,-2.457408 -5.47001,-1.539442 -1.71333,0.918212 -2.04273,3.094644 -0.73445,4.863647"
     id="Fill-665-3-6-28-1"
     style="fill:#000000;fill-rule:evenodd;stroke:none;stroke-width:0.999959" />
  <path
     d="m 216.05878,36.759031 c -0.23874,2.752976 1.7294,5.17365 4.39249,5.404512 2.66036,0.2307 5.0129,-1.815597 5.25148,-4.568602 0.2389,-2.755528 -1.7267,-5.173387 -4.38709,-5.404062 -2.66311,-0.230885 -5.01802,1.812675 -5.25688,4.568162"
     id="Fill-669-5-0-9-2"
     style="fill:#000000;fill-rule:evenodd;stroke:none;stroke-width:0.999997" />
  <path
     d="m 216.58287,48.510126 c -2.36333,2.582278 -2.45961,6.931657 -0.21681,9.708833 2.24053,2.774388 5.97571,2.930784 8.33871,0.348243 2.3655,-2.584632 2.46192,-6.928739 0.22135,-9.703226 -2.24279,-2.777185 -5.97801,-2.938649 -8.34324,-0.353851"
     id="Fill-669-3-62-6-7-9"
     style="fill:#000000;fill-rule:evenodd;stroke:none;stroke-width:0.999996" />
  <path
     d="m 216.19789,76.091924 c 3.74419,2.859704 9.04835,2.211876 11.84095,-1.444453 2.78964,-3.652762 2.01624,-8.936652 -1.72795,-11.796366 -3.74763,-2.86234 -9.04552,-2.21555 -11.83537,1.43705 -2.79209,3.656724 -2.02525,8.941438 1.72237,11.803769"
     id="Fill-669-3-6-9-26-36-3"
     style="fill:#000000;fill-rule:evenodd;stroke:none;stroke-width:0.999981" />
  <path
     d="m 220.12823,97.705944 c 6.22918,0.351928 11.54334,-3.97976 11.86469,-9.668199 0.32135,-5.682674 -4.47169,-10.579659 -10.70081,-10.93159 -6.23485,-0.352249 -11.54306,3.974036 -11.86411,9.656725 -0.32156,5.688427 4.46542,10.590809 10.70023,10.943064"
     id="Fill-669-3-6-9-2-1-1-1"
     style="fill:#000000;fill-rule:evenodd;stroke:none;stroke-width:0.999996" />
  <path
     d="m 221.03078,115.44426 c 6.82272,0 12.35754,-5.05715 12.35754,-11.28764 0,-6.224231 -5.53482,-11.275116 -12.35754,-11.275116 -6.82897,0 -12.35754,5.050885 -12.35754,11.275116 0,6.23049 5.52857,11.28764 12.35754,11.28764"
     id="Fill-669-3-6-9-2-0-8-2-9"
     style="fill:#000000;fill-rule:evenodd;stroke:none;stroke-width:1" />
  <path
     d="m 130.62179,5.8822643 c 1.5437,-0.5810585 2.32013,-1.9499242 1.72853,-3.0557715 -0.59058,-1.1039504 -2.32483,-1.5254099 -3.86851,-0.9443605 -1.54607,0.581967 -2.31867,1.9470899 -1.72814,3.0510376 0.59162,1.1058483 2.322,1.531057 3.86812,0.9490944"
     id="Fill-655-7-9-93-4"
     style="fill:#000000;fill-rule:evenodd;stroke:none;stroke-width:0.999986" />
  <path
     d="m 127.36032,15.17988 c 1.55133,1.217078 3.95365,1.061298 5.35804,-0.346719 1.40244,-1.405934 1.282,-3.537628 -0.26929,-4.754714 -1.55533,-1.2201945 -3.94979,-1.0616031 -5.35219,0.344351 -1.4044,1.407906 -1.29182,3.536891 0.26344,4.757082"
     id="Fill-659-5-3-1-7"
     style="fill:#000000;fill-rule:evenodd;stroke:none;stroke-width:0.999992" />
  <path
     d="m 129.46028,26.609824 c 2.47393,-0.05249 4.45582,-1.832304 4.43248,-3.975611 -0.0238,-2.143252 -2.04307,-3.837932 -4.51701,-3.785341 -2.47398,0.05263 -4.45846,1.832346 -4.43515,3.975636 0.0239,2.143273 2.04573,3.837883 4.51968,3.785316"
     id="Fill-665-3-6-9-8"
     style="fill:#000000;fill-rule:evenodd;stroke:none;stroke-width:0.999959" />
  <path
     d="m 125.8467,40.845571 c 1.77627,2.260375 5.23668,2.507067 7.72466,0.551864 2.48545,-1.953329 3.06155,-5.371814 1.28543,-7.632087 -1.7779,-2.262422 -5.23423,-2.509006 -7.71971,-0.555811 -2.48804,1.955152 -3.06814,5.373718 -1.29019,7.636081"
     id="Fill-669-5-0-4-4"
     style="fill:#000000;fill-rule:evenodd;stroke:none;stroke-width:0.999979" />
  <path
     d="m 122.95499,54.20874 c 1.31147,4.175695 5.47842,6.755258 9.30128,5.759771 3.81912,-0.994402 5.85444,-5.188763 4.54277,-9.364662 -1.31267,-4.179543 -5.4745,-6.756216 -9.29356,-5.761753 -3.82295,0.995437 -5.8629,5.187409 -4.5505,9.36663"
     id="Fill-669-3-62-6-78-5"
     style="fill:#000000;fill-rule:evenodd;stroke:none;stroke-width:0.999988" />
  <path
     d="m 127.2117,77.739422 c 4.6348,1.508334 9.57632,-0.898696 11.03201,-5.371787 1.45439,-4.468524 -1.12547,-9.318396 -5.76034,-10.826784 -4.63904,-1.50972 -9.57486,0.894186 -11.02911,5.362762 -1.45579,4.473053 1.11833,9.32604 5.75744,10.835809"
     id="Fill-669-3-6-9-26-4-0"
     style="fill:#000000;fill-rule:evenodd;stroke:none;stroke-width:0.99999" />
  <path
     d="m 129.73192,97.429762 c 6.45143,0.09621 11.75277,-4.356389 11.83598,-9.93832 0.0832,-5.576307 -5.08294,-10.179533 -11.5345,-10.275794 -6.45737,-0.09641 -11.75268,4.350785 -11.83585,9.927076 -0.0834,5.581941 5.07688,10.190688 11.53437,10.287038"
     id="Fill-669-3-6-9-2-1-5-3"
     style="fill:#000000;fill-rule:evenodd;stroke:none;stroke-width:0.999993" />
  <path
     d="m 129.34847,114.92977 c 6.9291,10e-6 12.55021,-5.13599 12.55022,-11.46361 1e-5,-6.321236 -5.6211,-11.450878 -12.5502,-11.450886 -6.93545,-8e-6 -12.5502,5.129622 -12.55021,11.450866 -1e-5,6.32762 5.61474,11.46362 12.55019,11.46363"
     id="Fill-669-3-6-9-2-0-8-0-6"
     style="fill:#000000;fill-rule:evenodd;stroke:none;stroke-width:0.999996" />
  <path
     d="m 258.97463,3.9784628 c 0.67438,0.6947433 1.69314,0.8034286 2.27347,0.2402572 0.5783,-0.5632171 0.49978,-1.5829366 -0.1746,-2.2776702 -0.67542,-0.6957968 -1.69109,-0.8033052 -2.27041,-0.241094 -0.57939,0.5640898 -0.50377,1.5827321 0.17154,2.278504"
     id="Fill-655-1"
     style="fill:#000000;fill-rule:evenodd;stroke:none;stroke-width:0.999993" />
  <path
     d="m 257.6025,9.0925021 c -0.93216,1.8274559 -0.34033,4.1051639 1.31996,5.0807929 1.65802,0.974363 3.7635,0.281913 4.69617,-1.545408 0.93457,-1.832072 0.34146,-4.1013588 -1.31652,-5.0757185 -1.66034,-0.9756761 -3.76455,-0.2918767 -4.69957,1.5404274"
     id="Fill-659-0"
     style="fill:#000000;fill-rule:evenodd;stroke:none;stroke-width:0.999983" />
  <path
     d="m 259.84983,18.350627 c -1.88773,0.01178 -3.40476,1.555625 -3.39281,3.448409 0.0119,1.892801 1.54836,3.41727 3.43604,3.405388 1.8878,-0.0118 3.40679,-1.555706 3.39485,-3.448467 -0.0119,-1.892774 -1.55036,-3.417261 -3.4381,-3.405368"
     id="Fill-665-6"
     style="fill:#000000;fill-rule:evenodd;stroke:none;stroke-width:0.999976" />
  <path
     d="m 264.81611,34.380707 c -1.11825,-2.970885 -4.19639,-4.563861 -6.87102,-3.557025 -2.67177,1.006136 -3.93298,4.231992 -2.81468,7.20284 1.11933,2.973611 4.19366,4.564838 6.86562,3.559077 2.67446,-1.007221 3.93939,-4.231333 2.82014,-7.204847"
     id="Fill-669-32"
     style="fill:#000000;fill-rule:evenodd;stroke:none;stroke-width:0.999997" />
  <path
     d="m 265.93913,52.025187 c -0.0918,-4.050795 -3.12605,-7.269895 -6.77295,-7.187293 -3.64317,0.08242 -6.52516,3.435379 -6.43335,7.486315 0.0919,4.054471 3.12247,7.269912 6.76561,7.187435 3.64678,-0.08269 6.53261,-3.431873 6.44079,-7.486451"
     id="Fill-669-3-0"
     style="fill:#000000;fill-rule:evenodd;stroke:none;stroke-width:0.999984" />
  <path
     d="m 257.19427,62.45004 c -3.98053,1.415092 -6.11371,5.645719 -4.76349,9.443579 1.34881,3.793981 5.67243,5.724803 9.65296,4.309694 3.98411,-1.416431 6.11501,-5.641877 4.7662,-9.435918 -1.35019,-3.797817 -5.67155,-5.733785 -9.65567,-4.317355"
     id="Fill-669-3-6-61"
     style="fill:#000000;fill-rule:evenodd;stroke:none;stroke-width:0.999999" />
  <path
     d="m 275.82109,5.550205 c 1.51261,0.814181 3.13769,0.4822122 3.62434,-0.7450396 0.48614,-1.225008 -0.35132,-2.8798271 -1.86396,-3.6940271 -1.51501,-0.81546969 -3.13449,-0.48308225 -3.62021,0.7421165 -0.48708,1.2270802 0.3448,2.8814599 1.85983,3.6969502"
     id="Fill-655-7-5"
     style="fill:#000000;fill-rule:evenodd;stroke:none;stroke-width:0.999991" />
  <path
     d="m 276.17399,8.7716468 c -1.80932,0.6940102 -3.1952,2.6677462 -3.0919,4.4009912 0.10321,1.730834 1.65713,2.573533 3.46637,1.879263 1.81389,-0.695839 3.19302,-2.664527 3.08985,-4.395316 -0.10336,-1.7332717 -1.6505,-2.5810104 -3.46432,-1.8849351"
     id="Fill-659-5-5"
     style="fill:#000000;fill-rule:evenodd;stroke:none;stroke-width:0.999991" />
  <path
     d="m 271.58981,22.066511 c -0.4927,2.706468 1.25,5.007416 3.89174,5.14566 2.64163,0.138081 5.18134,-1.938676 5.67391,-4.645201 0.49273,-2.706495 -1.24943,-5.010304 -3.89109,-5.148502 -2.64165,-0.138321 -5.1819,1.941456 -5.67461,4.647989"
     id="Fill-665-3-4"
     style="fill:#000000;fill-rule:evenodd;stroke:none;stroke-width:0.999997" />
  <path
     d="m 274.92881,42.719611 c 2.80549,-0.570703 5.33003,-3.398449 5.63565,-6.312552 0.30614,-2.910796 -1.72228,-4.809911 -4.5278,-4.239127 -2.80812,0.571188 -5.3297,3.395582 -5.63511,6.306656 -0.30637,2.913771 1.71909,4.816343 4.52729,4.245026"
     id="Fill-669-5-7"
     style="fill:#000000;fill-rule:evenodd;stroke:none;stroke-width:0.999984" />
  <path
     d="m 279.14531,57.613837 c 3.11559,-2.208452 3.91706,-6.435108 1.79049,-9.435256 -2.12471,-2.996924 -6.37594,-3.6377 -9.49147,-1.429261 -3.11848,2.210419 -3.91916,6.432137 -1.79476,9.429202 2.1268,2.999924 6.37728,3.645811 9.49574,1.435326"
     id="Fill-669-3-62-65"
     style="fill:#000000;fill-rule:evenodd;stroke:none;stroke-width:0.999999" />
  <path
     d="m 279.89826,62.239116 c -4.07999,-2.569096 -9.14028,-1.873363 -11.29681,1.551466 -2.15437,3.421387 -0.59274,8.281955 3.48725,10.851041 4.08372,2.571405 9.13809,1.876761 11.29244,-1.54456 2.15655,-3.424825 0.60086,-8.286507 -3.48288,-10.857958"
     id="Fill-669-3-6-9-6"
     style="fill:#000000;fill-rule:evenodd;stroke:none;stroke-width:0.999999" />
  <path
     d="m 253.55903,92.386766 c 3.75474,3.507683 9.5066,3.456767 12.84027,-0.11172 3.33031,-3.56488 2.98695,-9.30328 -0.76798,-12.811066 -3.75817,-3.510895 -9.50322,-3.460353 -12.83355,0.104518 -3.33363,3.568524 -2.9969,9.30735 0.76126,12.818268"
     id="Fill-669-3-6-1-93"
     style="fill:#000000;fill-rule:evenodd;stroke:none;stroke-width:0.999986" />
  <path
     d="m 266.98133,90.65538 c 2.72278,4.976345 8.70467,6.948959 13.35306,4.405588 4.64367,-2.540822 6.20318,-8.639624 3.48022,-13.615998 -2.72533,-4.980939 -8.7,-6.951526 -13.3437,-4.410727 -4.6484,2.543337 -6.21504,8.640184 -3.48979,13.621084"
     id="Fill-669-3-6-9-2-7"
     style="fill:#000000;fill-rule:evenodd;stroke:none;stroke-width:0.999996" />
  <path
     d="m 259.73005,113.66959 c 6.59174,0.0226 11.95555,-4.7761 11.97578,-10.7105 0.0211,-5.928384 -5.31079,-10.75745 -11.9025,-10.779922 -6.59774,-0.02241 -11.95553,4.770138 -11.97573,10.698542 -0.0211,5.93436 5.30474,10.76937 11.90245,10.79188"
     id="Fill-669-3-6-1-7-4"
     style="fill:#000000;fill-rule:evenodd;stroke:none;stroke-width:0.999996" />
  <path
     d="m 275.61292,114.18127 c 6.80996,0.0686 12.38713,-4.91939 12.45185,-11.13831 0.0639,-6.212708 -5.40751,-11.311742 -12.21761,-11.382602 -6.81618,-0.07086 -12.38708,4.913155 -12.45176,11.125722 -0.0639,6.21899 5.40118,11.32429 12.21752,11.39519"
     id="Fill-669-3-6-9-2-0-5"
     style="fill:#000000;fill-rule:evenodd;stroke:none;stroke-width:1" />
  <path
     d="m 293.41716,4.7883968 c 1.37199,0.985958 2.92287,0.9618358 3.45942,-0.057719 0.53572,-1.0178198 -0.14709,-2.6446857 -1.5191,-3.6306917 -1.37415,-0.98752783 -2.91975,-0.96203357 -3.45541,0.055785 -0.53652,1.0195943 0.14093,2.6450734 1.51509,3.6326261"
     id="Fill-655-7-9-2"
     style="fill:#000000;fill-rule:evenodd;stroke:none;stroke-width:0.999996" />
  <path
     d="m 291.97848,9.3400161 c -1.1169,1.1274249 -1.06156,3.0612319 0.12278,4.3129589 1.18259,1.249938 3.0513,1.34978 4.16811,0.222812 1.11974,-1.13035 1.0616,-3.058129 -0.12088,-4.3080076 -1.18424,-1.2517151 -3.05033,-1.357694 -4.17007,-0.226832"
     id="Fill-659-5-3-5"
     style="fill:#000000;fill-rule:evenodd;stroke:none;stroke-width:0.999999" />
  <path
     d="m 297.02565,20.354028 c -1.14124,-1.256445 -3.25955,-1.389661 -4.73486,-0.299625 -1.47558,1.090089 -1.74883,2.990102 -0.60745,4.246996 1.14129,1.256469 3.26064,1.390973 4.73613,0.300919 1.47545,-1.090168 1.74761,-2.991399 0.60643,-4.248305"
     id="Fill-665-3-6-4"
     style="fill:#000000;fill-rule:evenodd;stroke:none;stroke-width:0.999992" />
  <path
     d="m 297.69862,40.375053 c 2.1998,-1.508176 2.42948,-4.415055 0.51456,-6.48868 -1.91331,-2.071647 -5.25046,-2.529353 -7.45023,-1.021117 -2.20184,1.509476 -2.43186,4.412683 -0.5184,6.484547 1.91526,2.073801 5.25231,2.534885 7.45406,1.025249"
     id="Fill-669-5-0-74"
     style="fill:#000000;fill-rule:evenodd;stroke:none;stroke-width:0.999981" />
  <path
     d="m 299.40897,49.296682 c -1.65294,-3.697698 -5.78549,-5.257164 -9.22479,-3.48289 -3.43585,1.772522 -4.88316,6.210454 -3.23017,9.908244 1.65442,3.701038 5.78202,5.258938 9.21787,3.486336 3.4393,-1.774287 4.89162,-6.210631 3.23705,-9.911792"
     id="Fill-669-3-62-6-4"
     style="fill:#000000;fill-rule:evenodd;stroke:none;stroke-width:0.999987" />
  <path
     d="m 288.86674,63.807456 c -3.84055,3.021466 -4.68097,8.254371 -1.87788,11.68152 2.80023,3.423659 8.18817,3.750891 12.02871,0.72942 3.84403,-3.024221 4.68376,-8.250894 1.8835,-11.674615 -2.80308,-3.427156 -8.1903,-3.760607 -12.03438,-0.736332"
     id="Fill-669-3-6-9-26-30"
     style="fill:#000000;fill-rule:evenodd;stroke:none;stroke-width:0.99999" />
  <path
     d="m 285.59547,92.036312 c 3.61056,5.056792 10.28787,6.482869 14.90578,3.185702 4.61313,-3.294006 5.42783,-10.069101 1.81714,-15.126007 -3.61387,-5.061409 -10.28314,-6.486153 -14.89644,-3.192312 -4.61785,3.297249 -5.44043,10.071093 -1.82648,15.132617"
     id="Fill-669-3-6-9-2-1-78"
     style="fill:#000000;fill-rule:evenodd;stroke:none;stroke-width:0.999999" />
  <path
     d="m 294.16811,113.34063 c 6.8134,0.0906 12.4077,-4.8863 12.49051,-11.10816 0.082,-6.215759 -5.37759,-11.333188 -12.19103,-11.423751 -6.8196,-0.09065 -12.40759,4.879927 -12.49031,11.095571 -0.0822,6.22192 5.37118,11.34562 12.19083,11.43634"
     id="Fill-669-3-6-9-2-0-8-68"
     style="fill:#000000;fill-rule:evenodd;stroke:none;stroke-width:0.999987" />
  <path
     d="m 370.8856,5.2525498 c 1.12839,0.985413 2.57452,1.018001 3.22607,0.0688 0.65051,-0.947544 0.25926,-2.516804 -0.86906,-3.502226 -1.13011,-0.98698097 -2.57159,-1.01808297 -3.22204,-0.07052 -0.65161,0.949178 -0.26511,2.516963 0.86503,3.503953"
     id="Fill-655-7-9-7-8"
     style="fill:#000000;fill-rule:evenodd;stroke:none;stroke-width:0.99999" />
  <path
     d="m 315.56353,14.238186 c 1.43512,-1.035907 1.68364,-3.148943 0.55532,-4.7125132 -1.12687,-1.5614283 -3.20904,-1.9890382 -4.64436,-0.9532906 -1.43878,1.0385464 -1.68338,3.1454238 -0.55659,4.7068108 1.12846,1.563618 3.20678,1.997415 4.64568,0.959003"
     id="Fill-659-5-3-9-4"
     style="fill:#000000;fill-rule:evenodd;stroke:none;stroke-width:0.999993" />
  <path
     d="m 309.15394,21.922523 c -0.29842,2.259272 1.19019,4.315084 3.3247,4.597172 2.13452,0.28154 4.10591,-1.316697 4.40438,-3.575933 0.29845,-2.259291 -1.18987,-4.317551 -3.32434,-4.599546 -2.13452,-0.281557 -4.10628,1.319066 -4.40476,3.578242"
     id="Fill-665-3-6-2-3"
     style="fill:#000000;fill-rule:evenodd;stroke:none;stroke-width:0.999988" />
  <path
     d="m 310.90557,31.50245 c -2.64361,1.145839 -3.76455,4.437248 -2.50326,7.347288 1.26076,2.906702 4.42702,4.336569 7.07075,3.190736 2.64602,-1.146949 3.76575,-4.434361 2.50574,-7.341428 -1.26211,-2.909593 -4.42721,-4.34343 -7.07321,-3.19659"
     id="Fill-669-5-0-0-1"
     style="fill:#000000;fill-rule:evenodd;stroke:none;stroke-width:0.999991" />
  <path
     d="m 311.39568,45.295241 c -3.89274,1.127833 -6.16902,5.085405 -5.08296,8.83382 1.08433,3.744848 5.12333,5.868454 9.016,4.740533 3.89633,-1.128878 6.17028,-5.081561 5.08514,-8.826214 -1.08525,-3.748714 -5.12191,-5.877035 -9.01818,-4.748139"
     id="Fill-669-3-62-6-2-4"
     style="fill:#000000;fill-rule:evenodd;stroke:none;stroke-width:0.999998" />
  <path
     d="m 305.40736,68.161638 c -0.69332,4.799178 2.30117,9.2064 6.68374,9.839659 4.37812,0.632661 8.49353,-2.747211 9.18704,-7.546367 0.69406,-4.803569 -2.29677,-9.20576 -6.67491,-9.838379 -4.38257,-0.633294 -8.50176,2.74153 -9.19587,7.545085"
     id="Fill-669-3-6-9-26-3-9"
     style="fill:#000000;fill-rule:evenodd;stroke:none;stroke-width:0.999999" />
  <path
     d="m 310.021,96.216475 c 5.85097,2.313079 12.31223,-0.147474 14.42445,-5.490724 2.11019,-5.337804 -0.9241,-11.54588 -6.77526,-13.858983 -5.85637,-2.315174 -12.31012,0.1421 -14.42021,5.479942 -2.11245,5.343172 0.91446,11.554554 6.77102,13.869765"
     id="Fill-669-3-6-9-2-1-7-2"
     style="fill:#000000;fill-rule:evenodd;stroke:none;stroke-width:0.999992" />
  <path
     d="m 313.32463,114.46201 c 6.82316,0.005 12.362,-5.04853 12.36651,-11.27941 0.005,-6.224566 -5.52699,-11.279786 -12.35015,-11.28473 -6.82941,-0.0049 -12.36199,5.042253 -12.36651,11.26683 -0.005,6.23088 5.52074,11.29236 12.35015,11.29731"
     id="Fill-669-3-6-9-2-0-8-5-0"
     style="fill:#000000;fill-rule:evenodd;stroke:none;stroke-width:1" />
  <path
     d="m 389.32441,4.8571761 c 0.72237,-0.92051 0.70334,-2.299507 -0.0455,-3.077059 -0.74747,-0.776219 -1.94055,-0.656047 -2.66292,0.264458 -0.72349,0.921949 -0.70345,2.296699 0.044,3.072916 0.74872,0.777551 1.94084,0.661634 2.66431,-0.260316"
     id="Fill-655-7-9-9-6"
     style="fill:#000000;fill-rule:evenodd;stroke:none;stroke-width:0.999999" />
  <path
     d="m 331.38022,13.917396 c 1.23337,1.037632 3.20044,0.977879 4.38717,-0.132458 1.18513,-1.108791 1.14633,-2.853146 -0.0871,-3.8907801 -1.23647,-1.0402684 -3.1972,-0.9780931 -4.3823,0.1306961 -1.18679,1.110345 -1.15433,2.852268 0.0821,3.892542"
     id="Fill-659-5-3-2-8"
     style="fill:#000000;fill-rule:evenodd;stroke:none;stroke-width:1" />
  <path
     d="m 331.44517,25.472209 c 2.1429,0.780776 4.6509,-0.02549 5.60682,-1.799338 0.95601,-1.773782 -0.002,-3.842896 -2.14505,-4.623588 -2.14287,-0.780775 -4.65316,0.02466 -5.60911,1.79849 -0.956,1.773783 0.004,3.843736 2.14734,4.624436"
     id="Fill-665-3-6-28-9"
     style="fill:#000000;fill-rule:evenodd;stroke:none;stroke-width:1" />
  <path
     d="m 329.00253,39.448653 c 1.2838,2.634399 4.39361,3.763484 6.94188,2.521588 2.54596,-1.240213 3.57017,-4.384322 2.28644,-7.018579 -1.28497,-2.636821 -4.39107,-3.764737 -6.93677,-2.524086 -2.54854,1.241376 -3.5765,4.384414 -2.29162,7.021057"
     id="Fill-669-5-0-9-26"
     style="fill:#000000;fill-rule:evenodd;stroke:none;stroke-width:0.999995" />
  <path
     d="m 328.12234,48.735953 c -1.64765,3.345787 -0.45045,7.823425 2.67136,9.995892 3.11847,2.170116 6.98585,1.217153 8.63348,-2.128645 1.64914,-3.348879 0.45366,-7.821226 -2.66507,-9.991554 -3.12164,-2.172297 -6.99062,-1.22458 -8.63977,2.124307"
     id="Fill-669-3-62-6-7-6"
     style="fill:#000000;fill-rule:evenodd;stroke:none;stroke-width:0.999996" />
  <path
     d="m 328.45666,76.194349 c 4.05624,2.788363 9.55691,1.835254 12.27985,-2.12575 2.7209,-3.956539 1.63707,-9.430124 -2.41926,-12.218494 -4.05999,-2.790936 -9.55417,-1.839229 -12.2744,2.117755 -2.72359,3.960547 -1.64622,9.435568 2.41381,12.226489"
     id="Fill-669-3-6-9-26-36-4"
     style="fill:#000000;fill-rule:evenodd;stroke:none;stroke-width:0.999999" />
  <path
     d="m 332.09543,97.30722 c 6.29014,0.576201 11.81995,-3.618811 12.3461,-9.362922 0.5255,-5.738318 -4.1506,-10.862319 -10.44072,-11.438487 -6.2959,-0.576732 -11.81942,3.613031 -12.34504,9.351342 -0.52605,5.744123 4.14378,10.873371 10.43966,11.450067"
     id="Fill-669-3-6-9-2-1-1-9"
     style="fill:#000000;fill-rule:evenodd;stroke:none;stroke-width:1" />
  <path
     d="m 333.06357,114.91555 c 6.82316,1.1e-4 12.35841,-5.05728 12.35851,-11.28816 1e-4,-6.224574 -5.53499,-11.27587 -12.35815,-11.275976 -6.82941,-1.06e-4 -12.35841,5.051018 -12.35851,11.275576 -1e-4,6.23088 5.52874,11.28845 12.35815,11.28856"
     id="Fill-669-3-6-9-2-0-8-2-5"
     style="fill:#000000;fill-rule:evenodd;stroke:none;stroke-width:1" />
  <path
     d="m 239.87123,5.6897641 c 1.78302,0.4003144 3.36327,-0.2804498 3.52333,-1.5223779 0.15951,-1.2398765 -1.16154,-2.5698285 -2.9445,-2.9701343 -1.78586,-0.40098739 -3.3602,0.2789026 -3.51997,1.5187152 -0.15977,1.2419865 1.15537,2.5728459 2.94114,2.973797"
     id="Fill-655-7-9-93-0"
     style="fill:#000000;fill-rule:evenodd;stroke:none;stroke-width:1.00001" />
  <path
     d="m 236.54517,11.469587 c -0.30988,1.929517 1.16461,3.910468 3.2878,4.418995 2.1202,0.507669 4.09545,-0.647193 4.40577,-2.576068 0.31069,-1.934378 -1.16202,-3.9072283 -3.28225,-4.4150173 -2.12317,-0.5083893 -4.10021,0.638337 -4.4113,2.5721183"
     id="Fill-659-5-3-1-4"
     style="fill:#000000;fill-rule:evenodd;stroke:none;stroke-width:1" />
  <path
     d="m 237.81771,20.794262 c -1.24018,2.087599 -1.06993,4.333582 0.37768,5.021503 1.4476,0.687865 3.62393,-0.442845 4.86419,-2.530522 1.24023,-2.087646 1.07133,-4.335792 -0.37632,-5.023672 -1.44759,-0.687919 -3.62523,0.445036 -4.86555,2.532697"
     id="Fill-665-3-6-9-87"
     style="fill:#000000;fill-rule:evenodd;stroke:none;stroke-width:0.999983" />
  <path
     d="m 240.30998,32.045061 c -3.03568,0.288189 -5.21023,2.948212 -4.85517,5.936834 0.35458,2.98556 3.10519,5.174246 6.14081,4.88585 3.03843,-0.288532 5.21062,-2.9452 4.85587,-5.930794 -0.35506,-2.988613 -3.10312,-5.180594 -6.14157,-4.891903"
     id="Fill-669-5-0-4-1"
     style="fill:#000000;fill-rule:evenodd;stroke:none;stroke-width:0.999999" />
  <path
     d="m 240.8513,46.593683 c -4.59156,-0.210036 -8.65496,2.616477 -9.07217,6.309081 -0.4167,3.688771 2.96989,6.852633 7.5615,7.062772 4.59576,0.210291 8.65436,-2.613271 9.07123,-6.301622 0.41722,-3.692549 -2.96478,-6.859907 -7.56056,-7.070244"
     id="Fill-669-3-62-6-78-7"
     style="fill:#000000;fill-rule:evenodd;stroke:none;stroke-width:1" />
  <path
     d="m 231.04456,68.967922 c 0.18292,4.64518 4.39991,8.285455 9.41243,8.127495 5.00747,-0.157666 8.92266,-4.054022 8.73973,-8.699234 -0.18303,-4.649445 -4.39479,-8.28558 -9.40228,-8.127847 -5.01254,0.157867 -8.93295,4.050136 -8.74988,8.699586"
     id="Fill-669-3-6-9-26-4-2"
     style="fill:#000000;fill-rule:evenodd;stroke:none;stroke-width:0.99999" />
  <path
     d="m 237.80093,96.428168 c 6.83483,1.720649 13.7305,-1.176485 15.39515,-6.465454 1.66289,-5.283635 -2.53246,-10.967144 -9.36739,-12.687813 -6.84117,-1.722249 -13.72881,1.171171 -15.39176,6.454805 -1.6645,5.288998 2.5227,10.976197 9.364,12.698462"
     id="Fill-669-3-6-9-2-1-5-7"
     style="fill:#000000;fill-rule:evenodd;stroke:none;stroke-width:0.999993" />
  <path
     d="m 239.84785,114.42072 c 7.74186,0.009 14.02856,-5.11867 14.03626,-11.44176 0.009,-6.316687 -6.26661,-11.44874 -14.00846,-11.456264 -7.74898,-0.0076 -14.02855,5.11232 -14.03626,11.429004 -0.009,6.32309 6.25949,11.46148 14.00846,11.46902"
     id="Fill-669-3-6-9-2-0-8-0-2"
     style="fill:#000000;fill-rule:evenodd;stroke:none;stroke-width:0.999998" />
  <path
     d="m 315.13827,3.502617 c 0.91379,0.3317239 1.88177,-0.016896 2.15888,-0.7801674 0.27657,-0.7619615 -0.24281,-1.6490359 -1.15665,-1.98077007 -0.91522,-0.3322444 -1.87987,0.016101 -2.15648,0.77805587 -0.27713,0.7632567 0.23896,1.6506254 1.15425,1.9828816"
     id="Fill-655-2"
     style="fill:#000000;fill-rule:evenodd;stroke:none;stroke-width:1" />
  <path
     d="m 369.42945,13.221877 c 1.12676,1.753232 3.42918,2.398562 5.13485,1.440277 1.70333,-0.956945 2.17239,-3.15929 1.04558,-4.9125434 -1.12958,-1.757673 -3.42533,-2.3976404 -5.12863,-1.4406929 -1.70571,0.958267 -2.18148,3.1552363 -1.05183,4.9129503"
     id="Fill-659-61"
     style="fill:#000000;fill-rule:evenodd;stroke:none;stroke-width:1" />
  <path
     d="m 366.644,25.361968 c 1.37866,2.64479 4.64298,3.663435 7.29486,2.281142 2.65179,-1.38246 3.68629,-4.641701 2.30759,-7.286556 -1.37871,-2.644798 -4.64451,-3.666255 -7.29637,-2.283954 -2.65178,1.382473 -3.68478,4.64454 -2.30614,7.289349"
     id="Fill-665-0"
     style="fill:#000000;fill-rule:evenodd;stroke:none;stroke-width:0.999997" />
  <path
     d="m 366.73457,39.01849 c 1.46847,3.090006 4.91773,4.523604 7.69962,3.201577 2.77902,-1.320703 3.84288,-4.899223 2.37441,-7.989197 -1.46984,-3.092835 -4.91497,-4.524957 -7.69405,-3.204251 -2.78184,1.322018 -3.84985,4.899033 -2.37998,7.991871"
     id="Fill-669-6"
     style="fill:#000000;fill-rule:evenodd;stroke:none;stroke-width:1" />
  <path
     d="m 365.12778,54.097999 c 0.82551,4.354899 4.67742,7.28453 8.59804,6.541362 3.91665,-0.742526 6.42538,-4.87768 5.59988,-9.232615 -0.82626,-4.358869 -4.67348,-7.285253 -8.59014,-6.542835 -3.9206,0.7433 -6.43404,4.875194 -5.60779,9.234088"
     id="Fill-669-3-1"
     style="fill:#000000;fill-rule:evenodd;stroke:none;stroke-width:1" />
  <path
     d="m 366.05789,75.309369 c 3.2345,3.140819 8.2908,3.183841 11.28747,0.09775 2.99359,-3.083021 2.799,-8.132709 -0.43549,-11.273505 -3.23749,-3.14368 -8.2878,-3.186876 -11.28142,-0.103929 -2.99663,3.086121 -2.80802,8.13603 0.42944,11.279697"
     id="Fill-669-3-6-5"
     style="fill:#000000;fill-rule:evenodd;stroke:none;stroke-width:0.999999" />
  <path
     d="m 332.73604,4.8637639 c 1.72367,-0.084371 2.94932,-1.2130983 2.73125,-2.5213026 -0.21767,-1.3059465 -1.79637,-2.29513085 -3.52003,-2.21076845 -1.72637,0.0844932 -2.94692,1.21071455 -2.72925,2.51665785 0.21806,1.3081938 1.79164,2.299908 3.51803,2.2154132"
     id="Fill-655-7-94"
     style="fill:#000000;fill-rule:evenodd;stroke:none;stroke-width:0.999999" />
  <path
     d="m 385.61362,12.988368 c 0.99949,1.696372 3.20971,2.753898 4.92914,2.359366 1.71705,-0.393976 2.30064,-2.092548 1.30121,-3.788908 -1.00203,-1.7006874 -3.20601,-2.752264 -4.92304,-2.3582765 -1.71947,0.3945212 -2.30929,2.0871355 -1.30728,3.7878255"
     id="Fill-659-5-90"
     style="fill:#000000;fill-rule:evenodd;stroke:none;stroke-width:0.999995" />
  <path
     d="m 391.37198,23.193521 c 0.62609,-2.003271 -0.4709,-3.78987 -2.4489,-3.99518 -1.97802,-0.205325 -4.08751,1.248458 -4.71349,3.251765 -0.62598,2.003306 0.47023,3.792009 2.44824,3.997313 1.97799,0.205307 4.08816,-1.250597 4.71415,-3.253898"
     id="Fill-665-3-9"
     style="fill:#000000;fill-rule:evenodd;stroke:none;stroke-width:1" />
  <path
     d="m 383.581,34.881143 c -1.15239,2.069427 -0.12215,4.929256 2.29891,6.384282 2.41854,1.453528 5.31603,0.954278 6.46838,-1.115148 1.15341,-2.071341 0.12447,-4.927792 -2.29403,-6.381338 -2.42102,-1.455025 -5.31986,-0.959122 -6.47327,1.112202"
     id="Fill-669-5-1"
     style="fill:#000000;fill-rule:evenodd;stroke:none;stroke-width:0.999987" />
  <path
     d="m 379.99501,55.146001 c 1.00444,4.020474 4.96163,6.496928 8.83306,5.529734 3.86754,-0.966214 6.19123,-5.011811 5.18681,-9.03227 -1.00535,-4.024146 -4.95774,-6.497919 -8.82527,-5.531694 -3.87142,0.967201 -6.19987,5.010162 -5.1946,9.03423"
     id="Fill-669-3-62-77"
     style="fill:#000000;fill-rule:evenodd;stroke:none;stroke-width:0.999996" />
  <path
     d="m 382.99095,75.261183 c 3.78252,3.461898 9.20976,3.693135 12.11573,0.518011 2.90304,-3.171904 2.19033,-8.554292 -1.59217,-12.016184 -3.78598,-3.465066 -9.20682,-3.696319 -12.10985,-0.524411 -2.90599,3.175114 -2.19968,8.55752 1.58629,12.022584"
     id="Fill-669-3-6-9-1"
     style="fill:#000000;fill-rule:evenodd;stroke:none;stroke-width:0.999999" />
  <path
     d="m 370.36552,95.58278 c 5.18553,0.919508 10.1015,-2.334708 10.97539,-7.262957 0.87304,-4.923276 -2.62522,-9.664411 -7.81075,-10.583925 -5.19024,-0.920343 -10.10061,2.329751 -10.97362,7.253026 -0.87395,4.928244 2.6187,9.673505 7.80898,10.593856"
     id="Fill-669-3-6-1-1"
     style="fill:#000000;fill-rule:evenodd;stroke:none;stroke-width:0.999997" />
  <path
     d="m 386.42463,96.70519 c 5.74906,0.84297 11.05203,-2.832051 11.83941,-8.202219 0.78657,-5.364745 -3.23888,-10.402028 -8.98796,-11.244994 -5.7543,-0.843735 -11.05121,2.82666 -11.83783,8.191395 -0.78746,5.370154 3.23205,10.412085 8.98638,11.255818"
     id="Fill-669-3-6-9-2-5"
     style="fill:#000000;fill-rule:evenodd;stroke:none;stroke-width:1" />
  <path
     d="m 372.14859,114.3692 c 6.59893,3.3e-4 11.95242,-4.82149 11.95271,-10.76235 2.9e-4,-5.934882 -5.35272,-10.751246 -11.95165,-10.751572 -6.60495,-3.26e-4 -11.9524,4.81551 -11.95269,10.750392 -2.9e-4,5.94086 5.34668,10.7632 11.95163,10.76353"
     id="Fill-669-3-6-1-7-9"
     style="fill:#000000;fill-rule:evenodd;stroke:none;stroke-width:1" />
  <path
     d="m 387.99536,114.91662 c 6.82316,1.6e-4 12.35845,-5.0572 12.35859,-11.28809 1.4e-4,-6.22454 -5.53491,-11.275876 -12.35807,-11.276031 -6.82941,-1.55e-4 -12.35845,5.050929 -12.35859,11.275471 -1.4e-4,6.23089 5.52866,11.28849 12.35807,11.28865"
     id="Fill-669-3-6-9-2-0-7"
     style="fill:#000000;fill-rule:evenodd;stroke:none;stroke-width:1" />
  <path
     d="m 350.02222,4.2536701 c 1.66212,0.3249573 3.06512,-0.3451413 3.12771,-1.4983383 0.0625,-1.1512167 -1.23911,-2.34807467 -2.90125,-2.67304849 -1.66472,-0.32548129 -3.06236,0.34366362 -3.12487,1.49487209 -0.0627,1.153182 1.23365,2.3510302 2.89841,2.6765147"
     id="Fill-655-7-9-76"
     style="fill:#000000;fill-rule:evenodd;stroke:none;stroke-width:0.999999" />
  <path
     d="m 403.55993,13.151982 c 0.67469,1.453962 2.52509,2.0816 4.12662,1.40062 1.5993,-0.68004 2.35111,-2.414163 1.67641,-3.868149 -0.67641,-1.4576658 -2.52203,-2.0806917 -4.12131,-1.4006472 -1.60156,0.6809835 -2.35815,2.4104922 -1.68165,3.8682082"
     id="Fill-659-5-3-7"
     style="fill:#000000;fill-rule:evenodd;stroke:none;stroke-width:0.999994" />
  <path
     d="m 402.71132,22.098922 c -0.0184,1.73909 1.48032,3.315155 3.34838,3.524319 1.86801,0.209121 3.39722,-1.027857 3.41583,-2.766992 0.0184,-1.739113 -1.48032,-3.317004 -3.34835,-3.526149 -1.86805,-0.209162 -3.39726,1.029687 -3.41586,2.768822"
     id="Fill-665-3-6-3"
     style="fill:#000000;fill-rule:evenodd;stroke:none;stroke-width:0.999999" />
  <path
     d="m 401.34384,36.136247 c -0.91797,2.633735 0.68997,5.224511 3.58841,5.784081 2.89553,0.559058 5.98995,-1.123931 6.90791,-3.757668 0.91881,-2.636149 -0.68705,-5.22393 -3.58261,-5.782959 -2.89845,-0.559618 -5.99487,1.120421 -6.91371,3.756546"
     id="Fill-669-5-0-6"
     style="fill:#000000;fill-rule:evenodd;stroke:none;stroke-width:0.999993" />
  <path
     d="m 405.14233,60.288862 c 4.23034,0.667196 7.99544,-2.096165 8.40613,-6.167491 0.41029,-4.067235 -2.68857,-7.909015 -6.91891,-8.576214 -4.23419,-0.66781 -7.99501,2.092073 -8.40529,6.159291 -0.41063,4.071346 2.68388,7.916611 6.91807,8.584413"
     id="Fill-669-3-62-6-5"
     style="fill:#000000;fill-rule:evenodd;stroke:none;stroke-width:0.999996" />
  <path
     d="m 407.66996,78.326103 c 5.01737,-0.835278 8.40353,-5.190426 7.56067,-9.721216 -0.84196,-4.526209 -5.59548,-7.521597 -10.61284,-6.686317 -5.02199,0.836034 -8.40439,5.185864 -7.56243,9.712072 0.84285,4.530786 5.59262,7.531495 10.6146,6.695461"
     id="Fill-669-3-6-9-26-6"
     style="fill:#000000;fill-rule:evenodd;stroke:none;stroke-width:0.999999" />
  <path
     d="m 406.03048,97.424117 c 6.30397,0.396805 11.71207,-3.954024 12.0744,-9.710793 0.3617,-5.750966 -4.45833,-10.739685 -10.7623,-11.136448 -6.30975,-0.397171 -11.71171,3.948236 -12.07366,9.699186 -0.36208,5.756786 4.45181,10.750928 10.76156,11.148055"
     id="Fill-669-3-6-9-2-1-3"
     style="fill:#000000;fill-rule:evenodd;stroke:none;stroke-width:1" />
  <path
     d="m 406.57495,113.99427 c 6.82316,0 12.35833,-5.05748 12.35833,-11.28836 0,-6.224618 -5.53517,-11.275828 -12.35833,-11.275828 -6.82941,0 -12.35833,5.05121 -12.35833,11.275828 0,6.23088 5.52892,11.28836 12.35833,11.28836"
     id="Fill-669-3-6-9-2-0-8-9"
     style="fill:#000000;fill-rule:evenodd;stroke:none;stroke-width:1" />
  <path
     d="m 425.16737,5.9344152 c 1.30389,0.7380086 2.72703,0.4786149 3.17412,-0.5824618 0.44635,-1.0592534 -0.25293,-2.5176854 -1.55683,-3.2557079 -1.30593,-0.7391863 -2.72417,-0.4792781 -3.1705,0.5799673 -0.44712,1.0610764 0.24727,2.5190159 1.55321,3.2582024"
     id="Fill-655-7-9-7-4"
     style="fill:#000000;fill-rule:evenodd;stroke:none;stroke-width:0.999999" />
  <path
     d="m 429.05483,13.081913 c 0.56662,-1.680265 -0.46145,-3.5474207 -2.29205,-4.1647305 -1.82803,-0.61644 -3.77434,0.2477108 -4.34095,1.9279685 -0.56804,1.684544 0.45965,3.54441 2.2877,4.160853 1.83057,0.617305 3.77726,-0.23955 4.3453,-1.924091"
     id="Fill-659-5-3-9-8"
     style="fill:#000000;fill-rule:evenodd;stroke:none;stroke-width:0.999998" />
  <path
     d="m 424.36668,26.3707 c 2.22841,0.55989 4.45938,-0.693723 4.98836,-2.799048 0.52892,-2.10531 -0.84452,-4.264545 -3.07295,-4.824432 -2.2284,-0.55989 -4.4617,0.693128 -4.99069,2.79844 -0.52897,2.105322 0.84687,4.265154 3.07528,4.82504"
     id="Fill-665-3-6-2-1"
     style="fill:#000000;fill-rule:evenodd;stroke:none;stroke-width:0.999997" />
  <path
     d="m 422.78528,42.93829 c 2.74901,1.022872 5.89295,-0.603411 7.01891,-3.629343 1.12475,-3.022876 -0.19257,-6.305711 -2.94156,-7.32858 -2.7515,-1.023813 -5.89181,0.600389 -7.01659,3.623258 -1.12594,3.025934 0.18774,6.310858 2.93924,7.334665"
     id="Fill-669-5-0-0-29"
     style="fill:#000000;fill-rule:evenodd;stroke:none;stroke-width:0.999995" />
  <path
     d="m 422.98542,59.741812 c 3.96299,1.211518 8.12477,-0.90312 9.29142,-4.719207 1.16544,-3.812243 -1.10373,-7.888677 -5.06671,-9.100192 -3.96661,-1.212626 -8.12363,0.89928 -9.28905,4.711525 -1.16661,3.816095 1.09773,7.895251 5.06434,9.107874"
     id="Fill-669-3-62-6-2-3"
     style="fill:#000000;fill-rule:evenodd;stroke:none;stroke-width:0.999996" />
  <path
     d="m 424.87116,78.445591 c 4.8968,0.52765 9.26036,-2.673939 9.7422,-7.145691 0.48138,-4.467237 -3.10046,-8.52042 -7.9973,-9.048069 -4.90131,-0.528134 -9.2599,2.669437 -9.74126,7.136676 -0.48189,4.471751 3.09503,8.528954 7.99636,9.057084"
     id="Fill-669-3-6-9-26-3-90"
     style="fill:#000000;fill-rule:evenodd;stroke:none;stroke-width:0.999999" />
  <path
     d="m 425.82981,97.717155 c 6.31638,0.02478 11.45885,-4.636955 11.4815,-10.405069 0.0229,-5.762285 -5.08311,-10.458464 -11.39952,-10.483259 -6.32217,-0.0248 -11.45883,4.631154 -11.48144,10.393439 -0.023,5.768115 5.07726,10.470072 11.39946,10.494889"
     id="Fill-669-3-6-9-2-1-7-8"
     style="fill:#000000;fill-rule:evenodd;stroke:none;stroke-width:1" />
  <path
     d="m 425.55962,115.06953 c 6.82316,0 12.35833,-5.05748 12.35833,-11.28837 0,-6.224579 -5.53517,-11.275789 -12.35833,-11.275789 -6.82941,0 -12.35833,5.05121 -12.35833,11.275789 0,6.23089 5.52892,11.28837 12.35833,11.28837"
     id="Fill-669-3-6-9-2-0-8-5-8"
     style="fill:#000000;fill-rule:evenodd;stroke:none;stroke-width:1" />
  <path
     d="m 447.07244,4.9495093 c 0.65234,-0.9713815 0.53142,-2.3452011 -0.27272,-3.0652852 -0.80277,-0.718851 -1.98373,-0.5108248 -2.63608,0.4605518 -0.65336,0.9729024 -0.53177,2.3424117 0.27098,3.0612628 0.80416,0.720084 1.98446,0.5163729 2.63782,-0.4565294"
     id="Fill-655-7-9-9-5"
     style="fill:#000000;fill-rule:evenodd;stroke:none;stroke-width:0.999999" />
  <path
     d="m 444.04184,14.862598 c 1.45327,0.697042 3.34321,0.14834 4.21537,-1.223006 0.87095,-1.36944 0.3981,-3.048939 -1.05515,-3.7459891 -1.45697,-0.6988152 -3.34014,-0.1493538 -4.21108,1.2200851 -0.87217,1.371352 -0.4061,3.050087 1.05086,3.74891"
     id="Fill-659-5-3-2-0"
     style="fill:#000000;fill-rule:evenodd;stroke:none;stroke-width:1" />
  <path
     d="m 445.60189,26.218131 c 2.20655,-0.57715 3.8104,-2.667195 3.58738,-4.669918 -0.22299,-2.002718 -2.18826,-3.159205 -4.39485,-2.582049 -2.20656,0.577154 -3.81275,2.667808 -3.58974,4.670523 0.22299,2.002729 2.19063,3.158595 4.39721,2.581444"
     id="Fill-665-3-6-28-96"
     style="fill:#000000;fill-rule:evenodd;stroke:none;stroke-width:0.999998" />
  <path
     d="m 445.08021,42.59195 c 2.93161,0.09393 5.3836,-2.13168 5.47445,-4.967559 0.0907,-2.833015 -2.2138,-5.208187 -5.14541,-5.302116 -2.9343,-0.09402 -5.3835,2.128842 -5.47427,4.961853 -0.0908,2.835878 2.21093,5.213805 5.14523,5.307822"
     id="Fill-669-5-0-9-3"
     style="fill:#000000;fill-rule:evenodd;stroke:none;stroke-width:0.999994" />
  <path
     d="m 439.27141,56.745931 c 2.29477,2.947542 6.85321,3.826185 10.17572,1.962775 3.31919,-1.861528 4.15105,-5.76328 1.85626,-8.710822 -2.29689,-2.950241 -6.8499,-3.828059 -10.16907,-1.966534 -3.32253,1.863412 -4.15982,5.764342 -1.86291,8.714581"
     id="Fill-669-3-62-6-7-8"
     style="fill:#000000;fill-rule:evenodd;stroke:none;stroke-width:0.999995" />
  <path
     d="m 445.26521,78.843157 c 4.92516,9e-5 8.92069,-3.903668 8.92077,-8.713236 9e-5,-4.804711 -3.9953,-8.703775 -8.92047,-8.703864 -4.92968,-8.9e-5 -8.92069,3.89883 -8.92077,8.70354 -9e-5,4.809568 3.99079,8.713471 8.92047,8.71356"
     id="Fill-669-3-6-9-26-36-5"
     style="fill:#000000;fill-rule:evenodd;stroke:none;stroke-width:0.999999" />
  <path
     d="m 445.2981,98.18039 c 6.31645,0 11.44057,-4.6819 11.44057,-10.45006 0,-5.76233 -5.12412,-10.43843 -11.44057,-10.43843 -6.32224,0 -11.44057,4.6761 -11.44057,10.43843 0,5.76816 5.11833,10.45006 11.44057,10.45006"
     id="Fill-669-3-6-9-2-1-1-6"
     style="fill:#000000;fill-rule:evenodd;stroke:none;stroke-width:1" />
  <path
     d="m 445.2963,115.5623 c 6.82316,0 12.35833,-5.05748 12.35833,-11.28837 0,-6.224578 -5.53517,-11.275788 -12.35833,-11.275788 -6.82941,0 -12.35833,5.05121 -12.35833,11.275788 0,6.23089 5.52892,11.28837 12.35833,11.28837"
     id="Fill-669-3-6-9-2-0-8-2-1"
     style="fill:#000000;fill-rule:evenodd;stroke:none;stroke-width:1" />
  <path
     d="m 409.18816,6.6728491 c 1.61799,-0.343363 2.59418,-1.583412 2.17432,-2.768955 -0.41912,-1.183507 -2.07497,-1.862797 -3.69292,-1.519441 -1.62057,0.343892 -2.59232,1.58082 -2.17323,2.764322 0.41982,1.185539 2.07131,1.86797 3.69183,1.524074"
     id="Fill-655-7-9-93-1"
     style="fill:#000000;fill-rule:evenodd;stroke:none;stroke-width:0.999999" />
  <path
     d="m 351.06684,14.982045 c 1.24151,1.549776 3.6329,1.94884 5.33341,0.891015 1.69812,-1.05637 2.06972,-3.174236 0.8283,-4.724006 -1.24466,-1.5537172 -3.62896,-1.9483266 -5.32706,-0.891949 -1.70053,1.057836 -2.07925,3.171238 -0.83456,4.724972"
     id="Fill-659-5-3-1-5"
     style="fill:#000000;fill-rule:evenodd;stroke:none;stroke-width:0.999998" />
  <path
     d="m 350.05248,23.221126 c 0.35387,1.849947 2.3905,3.25163 4.55015,3.135047 2.15961,-0.116627 3.62388,-1.707265 3.26998,-3.557245 -0.35389,-1.84998 -2.39089,-3.253617 -4.5505,-3.137023 -2.15965,0.116604 -3.62353,1.709228 -3.26962,3.559219"
     id="Fill-665-3-6-9-9"
     style="fill:#000000;fill-rule:evenodd;stroke:none;stroke-width:1" />
  <path
     d="m 348.76921,39.949731 c 1.27416,2.641951 4.66821,3.646784 7.57628,2.244273 2.90516,-1.401071 4.22898,-4.681315 2.95491,-7.323192 -1.27533,-2.644361 -4.66527,-3.648163 -7.57042,-2.247085 -2.9081,1.402465 -4.23607,4.68166 -2.96077,7.326004"
     id="Fill-669-5-0-4-8"
     style="fill:#000000;fill-rule:evenodd;stroke:none;stroke-width:0.999995" />
  <path
     d="m 346.70128,52.928975 c 0.27432,4.452903 3.76497,8.026178 7.79131,7.978085 4.02232,-0.04804 7.06385,-3.699336 6.78954,-8.152214 -0.27457,-4.456971 -3.76088,-8.026206 -7.78321,-7.978177 -4.02637,0.04808 -7.07218,3.69537 -6.79764,8.152306"
     id="Fill-669-3-62-6-78-4"
     style="fill:#000000;fill-rule:evenodd;stroke:none;stroke-width:0.999996" />
  <path
     d="m 348.66816,75.763568 c 4.05236,2.799248 9.53253,1.895673 12.23406,-2.015239 2.69884,-3.906957 1.60155,-9.348269 -2.45081,-12.147511 -4.05606,-2.801809 -9.52982,-1.899617 -12.22865,2.007346 -2.70157,3.910896 -1.61065,9.353597 2.44541,12.155404"
     id="Fill-669-3-6-9-26-4-8"
     style="fill:#000000;fill-rule:evenodd;stroke:none;stroke-width:0.999999" />
  <path
     d="m 353.0582,97.347357 c 6.42973,0.685844 12.12743,-3.273218 12.72082,-8.836321 0.59288,-5.557473 -4.14217,-10.62373 -10.57188,-11.30958 -6.43562,-0.686474 -12.12684,3.267626 -12.71963,8.825103 -0.59342,5.563101 4.13506,10.634318 10.57069,11.320798"
     id="Fill-669-3-6-9-2-1-5-1"
     style="fill:#000000;fill-rule:evenodd;stroke:none;stroke-width:1" />
  <path
     d="m 353.65924,114.99357 c 6.92936,2e-5 12.5507,-5.13616 12.55072,-11.46403 2e-5,-6.321427 -5.6213,-11.451275 -12.55066,-11.451296 -6.93571,-2.1e-5 -12.55069,5.129795 -12.55071,11.451216 -2e-5,6.32787 5.61494,11.46409 12.55065,11.46411"
     id="Fill-669-3-6-9-2-0-8-0-0"
     style="fill:#000000;fill-rule:evenodd;stroke:none;stroke-width:1" />
</svg>
